<svg width="194" height="156" viewBox="0 0 194 156" fill="none" xmlns="http://www.w3.org/2000/svg">
<line x1="0.75" y1="-0.75" x2="23.6278" y2="-0.75" transform="matrix(-0.685931 0.727666 -0.726487 -0.68718 19.0432 0)" stroke="#5F7BCF" stroke-width="1.5" stroke-linecap="round"/>
<line x1="0.75" y1="-0.75" x2="23.6278" y2="-0.75" transform="matrix(-0.685931 0.727666 -0.726487 -0.68718 17.8823 33.6646)" stroke="#5F7BCF" stroke-width="1.5" stroke-linecap="round"/>
<line x1="0.75" y1="-0.75" x2="23.6278" y2="-0.75" transform="matrix(-0.685931 0.727666 -0.726487 -0.68718 17.8823 68.49)" stroke="#5F7BCF" stroke-width="1.5" stroke-linecap="round"/>
<line x1="0.75" y1="-0.75" x2="23.6278" y2="-0.75" transform="matrix(-0.685931 0.727666 -0.726487 -0.68718 17.8823 102.155)" stroke="#5F7BCF" stroke-width="1.5" stroke-linecap="round"/>
<line x1="0.75" y1="-0.75" x2="23.6278" y2="-0.75" transform="matrix(-0.685931 0.727666 -0.726487 -0.68718 16.7214 136.98)" stroke="#5F7BCF" stroke-width="1.5" stroke-linecap="round"/>
<line x1="0.75" y1="-0.75" x2="23.6278" y2="-0.75" transform="matrix(-0.685931 0.727666 -0.726487 -0.68718 43.4209 0)" stroke="#5F7BCF" stroke-width="1.5" stroke-linecap="round"/>
<line x1="0.75" y1="-0.75" x2="23.6278" y2="-0.75" transform="matrix(-0.685931 0.727666 -0.726487 -0.68718 43.4209 33.6646)" stroke="#5F7BCF" stroke-width="1.5" stroke-linecap="round"/>
<line x1="0.75" y1="-0.75" x2="23.6278" y2="-0.75" transform="matrix(-0.685931 0.727666 -0.726487 -0.68718 43.4209 68.49)" stroke="#5F7BCF" stroke-width="1.5" stroke-linecap="round"/>
<line x1="0.75" y1="-0.75" x2="23.6278" y2="-0.75" transform="matrix(-0.685931 0.727666 -0.726487 -0.68718 42.2603 102.155)" stroke="#5F7BCF" stroke-width="1.5" stroke-linecap="round"/>
<line x1="0.75" y1="-0.75" x2="23.6278" y2="-0.75" transform="matrix(-0.685931 0.727666 -0.726487 -0.68718 42.2603 136.98)" stroke="#5F7BCF" stroke-width="1.5" stroke-linecap="round"/>
<line x1="0.75" y1="-0.75" x2="23.6278" y2="-0.75" transform="matrix(-0.685931 0.727666 -0.726487 -0.68718 68.9597 0)" stroke="#5F7BCF" stroke-width="1.5" stroke-linecap="round"/>
<line x1="0.75" y1="-0.75" x2="23.6278" y2="-0.75" transform="matrix(-0.685931 0.727666 -0.726487 -0.68718 67.7988 33.6646)" stroke="#5F7BCF" stroke-width="1.5" stroke-linecap="round"/>
<line x1="0.75" y1="-0.75" x2="23.6278" y2="-0.75" transform="matrix(-0.685931 0.727666 -0.726487 -0.68718 67.7988 68.49)" stroke="#5F7BCF" stroke-width="1.5" stroke-linecap="round"/>
<line x1="0.75" y1="-0.75" x2="23.6278" y2="-0.75" transform="matrix(-0.685931 0.727666 -0.726487 -0.68718 67.7988 102.155)" stroke="#5F7BCF" stroke-width="1.5" stroke-linecap="round"/>
<line x1="0.75" y1="-0.75" x2="23.6278" y2="-0.75" transform="matrix(-0.685931 0.727666 -0.726487 -0.68718 66.6379 136.98)" stroke="#5F7BCF" stroke-width="1.5" stroke-linecap="round"/>
<line x1="0.75" y1="-0.75" x2="23.6278" y2="-0.75" transform="matrix(-0.685931 0.727666 -0.726487 -0.68718 93.3374 0)" stroke="#5F7BCF" stroke-width="1.5" stroke-linecap="round"/>
<line x1="0.75" y1="-0.75" x2="23.6278" y2="-0.75" transform="matrix(-0.685931 0.727666 -0.726487 -0.68718 93.3374 33.6646)" stroke="#5F7BCF" stroke-width="1.5" stroke-linecap="round"/>
<line x1="0.75" y1="-0.75" x2="23.6278" y2="-0.75" transform="matrix(-0.685931 0.727666 -0.726487 -0.68718 92.1768 68.49)" stroke="#5F7BCF" stroke-width="1.5" stroke-linecap="round"/>
<line x1="0.75" y1="-0.75" x2="23.6278" y2="-0.75" transform="matrix(-0.685931 0.727666 -0.726487 -0.68718 92.1768 102.155)" stroke="#5F7BCF" stroke-width="1.5" stroke-linecap="round"/>
<line x1="0.75" y1="-0.75" x2="23.6278" y2="-0.75" transform="matrix(-0.685931 0.727666 -0.726487 -0.68718 92.1768 136.98)" stroke="#5F7BCF" stroke-width="1.5" stroke-linecap="round"/>
<line x1="0.75" y1="-0.75" x2="23.6278" y2="-0.75" transform="matrix(-0.685931 0.727666 -0.726487 -0.68718 118.876 0)" stroke="#FFFDF8" stroke-width="1.5" stroke-linecap="round"/>
<line x1="0.75" y1="-0.75" x2="23.6278" y2="-0.75" transform="matrix(-0.685931 0.727666 -0.726487 -0.68718 117.715 33.6646)" stroke="#FFFDF8" stroke-width="1.5" stroke-linecap="round"/>
<line x1="0.75" y1="-0.75" x2="23.6278" y2="-0.75" transform="matrix(-0.685931 0.727666 -0.726487 -0.68718 117.715 68.49)" stroke="#FFFDF8" stroke-width="1.5" stroke-linecap="round"/>
<line x1="0.75" y1="-0.75" x2="23.6278" y2="-0.75" transform="matrix(-0.685931 0.727666 -0.726487 -0.68718 117.715 102.155)" stroke="#FFFDF8" stroke-width="1.5" stroke-linecap="round"/>
<line x1="0.75" y1="-0.75" x2="23.6278" y2="-0.75" transform="matrix(-0.685931 0.727666 -0.726487 -0.68718 116.554 136.98)" stroke="#FFFDF8" stroke-width="1.5" stroke-linecap="round"/>
<line x1="0.75" y1="-0.75" x2="23.6278" y2="-0.75" transform="matrix(-0.685931 0.727666 -0.726487 -0.68718 143.254 0)" stroke="#FFFDF8" stroke-width="1.5" stroke-linecap="round"/>
<line x1="0.75" y1="-0.75" x2="23.6278" y2="-0.75" transform="matrix(-0.685931 0.727666 -0.726487 -0.68718 143.254 33.6646)" stroke="#FFFDF8" stroke-width="1.5" stroke-linecap="round"/>
<line x1="0.75" y1="-0.75" x2="23.6278" y2="-0.75" transform="matrix(-0.685931 0.727666 -0.726487 -0.68718 142.093 68.49)" stroke="#FFFDF8" stroke-width="1.5" stroke-linecap="round"/>
<line x1="0.75" y1="-0.75" x2="23.6278" y2="-0.75" transform="matrix(-0.685931 0.727666 -0.726487 -0.68718 142.093 102.155)" stroke="#FFFDF8" stroke-width="1.5" stroke-linecap="round"/>
<line x1="0.75" y1="-0.75" x2="23.6278" y2="-0.75" transform="matrix(-0.685931 0.727666 -0.726487 -0.68718 142.093 136.98)" stroke="#FFFDF8" stroke-width="1.5" stroke-linecap="round"/>
<line x1="0.75" y1="-0.75" x2="23.6278" y2="-0.75" transform="matrix(-0.685931 0.727666 -0.726487 -0.68718 168.793 0)" stroke="#FFFDF8" stroke-width="1.5" stroke-linecap="round"/>
<line x1="0.75" y1="-0.75" x2="23.6278" y2="-0.75" transform="matrix(-0.685931 0.727666 -0.726487 -0.68718 167.632 33.6646)" stroke="#FFFDF8" stroke-width="1.5" stroke-linecap="round"/>
<line x1="0.75" y1="-0.75" x2="23.6278" y2="-0.75" transform="matrix(-0.685931 0.727666 -0.726487 -0.68718 167.632 68.49)" stroke="#FFFDF8" stroke-width="1.5" stroke-linecap="round"/>
<line x1="0.75" y1="-0.75" x2="23.6278" y2="-0.75" transform="matrix(-0.685931 0.727666 -0.726487 -0.68718 167.632 102.155)" stroke="#FFFDF8" stroke-width="1.5" stroke-linecap="round"/>
<line x1="0.75" y1="-0.75" x2="23.6278" y2="-0.75" transform="matrix(-0.685931 0.727666 -0.726487 -0.68718 166.471 136.98)" stroke="#FFFDF8" stroke-width="1.5" stroke-linecap="round"/>
<line x1="0.75" y1="-0.75" x2="23.6278" y2="-0.75" transform="matrix(-0.685931 0.727666 -0.726487 -0.68718 193.17 0)" stroke="#FFFDF8" stroke-width="1.5" stroke-linecap="round"/>
<line x1="0.75" y1="-0.75" x2="23.6278" y2="-0.75" transform="matrix(-0.685931 0.727666 -0.726487 -0.68718 193.17 33.6646)" stroke="#FFFDF8" stroke-width="1.5" stroke-linecap="round"/>
<line x1="0.75" y1="-0.75" x2="23.6278" y2="-0.75" transform="matrix(-0.685931 0.727666 -0.726487 -0.68718 192.01 68.49)" stroke="#FFFDF8" stroke-width="1.5" stroke-linecap="round"/>
<line x1="0.75" y1="-0.75" x2="23.6278" y2="-0.75" transform="matrix(-0.685931 0.727666 -0.726487 -0.68718 192.01 102.155)" stroke="#FFFDF8" stroke-width="1.5" stroke-linecap="round"/>
<line x1="0.75" y1="-0.75" x2="23.6278" y2="-0.75" transform="matrix(-0.685931 0.727666 -0.726487 -0.68718 192.01 136.98)" stroke="#FFFDF8" stroke-width="1.5" stroke-linecap="round"/>
</svg>
