<svg width="64" height="64" viewBox="0 0 64 64" fill="none" xmlns="http://www.w3.org/2000/svg">
<path d="M46.4534 11.7599H14.3734L19.3866 6.74667C20.16 5.97333 20.16 4.69318 19.3866 3.91984C18.6133 3.14651 17.3333 3.14651 16.56 3.91984L8.1333 12.3466C7.94663 12.5333 7.81337 12.7466 7.70671 12.9866C7.60004 13.2266 7.54663 13.4932 7.54663 13.7599C7.54663 14.0265 7.60004 14.2933 7.70671 14.5333C7.81337 14.7733 7.94663 14.9866 8.1333 15.1733L16.56 23.5999C16.96 23.9999 17.4666 24.1866 17.9733 24.1866C18.48 24.1866 18.9866 23.9999 19.3866 23.5999C20.16 22.8265 20.16 21.5465 19.3866 20.7732L14.3734 15.7599H46.4534C49.76 15.7599 52.4534 18.4532 52.4534 21.7599V30.6132C52.4534 31.7065 53.36 32.6132 54.4534 32.6132C55.5467 32.6132 56.4534 31.7065 56.4534 30.6132V21.7599C56.4534 16.2399 51.9734 11.7599 46.4534 11.7599Z" fill="#1A3890"/>
<path opacity="1" d="M56.4534 50.2401C56.4534 49.9734 56.4 49.7066 56.2933 49.4666C56.1866 49.2266 56.0534 49.0133 55.8667 48.8267L47.44 40.4001C46.6667 39.6267 45.3867 39.6267 44.6134 40.4001C43.84 41.1734 43.84 42.4534 44.6134 43.2267L49.6266 48.2401H17.5466C14.24 48.2401 11.5466 45.5467 11.5466 42.2401V33.3867C11.5466 32.2934 10.64 31.3867 9.54663 31.3867C8.4533 31.3867 7.54663 32.2934 7.54663 33.3867V42.2401C7.54663 47.7601 12.0266 52.2401 17.5466 52.2401H49.6266L44.6134 57.2533C43.84 58.0266 43.84 59.3067 44.6134 60.0801C45.0134 60.4801 45.52 60.6667 46.0267 60.6667C46.5334 60.6667 47.04 60.4801 47.44 60.0801L55.8667 51.6533C56.0534 51.4667 56.1866 51.2533 56.2933 51.0133C56.4 50.7733 56.4534 50.5067 56.4534 50.2401Z" fill="#5F7BCF"/>
</svg>
