<svg width="64" height="64" viewBox="0 0 64 64" fill="none" xmlns="http://www.w3.org/2000/svg">
<path opacity="0.4" d="M58.6666 20.8267V40.4267C57.8933 40.0533 57.04 39.7867 56.08 39.6267L55.2533 39.4933L54.56 38.0533C53.0933 35.0667 50.6933 33.3333 48 33.3333C45.3066 33.3333 42.9067 35.0667 41.44 38.0533L40.7199 39.4933L39.92 39.6267C36.7466 40.16 34.4533 41.92 33.6266 44.4267C32.8266 46.96 33.6533 49.7333 35.92 52.0267L36.7466 52.8533L36.6666 53.1733C36.1333 55.5467 36.3467 57.36 36.8533 58.6667H20.8266C11.12 58.6667 5.33331 52.88 5.33331 43.1733V20.8267C5.33331 11.12 11.12 5.33334 20.8266 5.33334H43.1733C52.88 5.33334 58.6666 11.12 58.6666 20.8267Z" fill="#EC1C23"/>
<path d="M50.9866 39.84L51.84 41.5733C52.2666 42.4267 53.36 43.2267 54.2667 43.3867L55.4133 43.5733C58.9066 44.16 59.7066 46.72 57.2266 49.2267L56.16 50.2933C55.44 51.0133 55.0667 52.4 55.28 53.4133L55.4133 54.0533C56.3733 58.2667 54.1333 59.8933 50.48 57.68L49.7067 57.2C48.7733 56.64 47.2266 56.64 46.2933 57.2L45.52 57.68C41.84 59.8933 39.6266 58.2667 40.5866 54.0533L40.7199 53.4133C40.9333 52.4267 40.56 51.0133 39.84 50.2933L38.7733 49.2267C36.2933 46.6933 37.0933 44.16 40.5866 43.5733L41.7333 43.3867C42.6666 43.2267 43.7333 42.4267 44.16 41.5733L45.0133 39.84C46.6667 36.5067 49.3333 36.5067 50.9866 39.84Z" fill="#EC1C23"/>
<path fill-rule="evenodd" clip-rule="evenodd" d="M43.012 21.1126C43.885 21.7894 44.0441 23.0457 43.3674 23.9186L37.1955 31.8805C35.6092 33.8868 32.6843 34.2527 30.6438 32.6759L30.6299 32.6651L25.759 28.8323C25.4581 28.6037 25.0384 28.6606 24.8099 28.9554C24.8097 28.9557 24.8101 28.9551 24.8099 28.9554L18.4645 37.1938C17.7904 38.0688 16.5347 38.2318 15.6596 37.5578C14.7845 36.8838 14.6215 35.628 15.2955 34.7529L21.6441 26.5104C23.2279 24.4609 26.1644 24.0904 28.2096 25.6708L28.2235 25.6815L33.0943 29.5144C33.3984 29.7453 33.8269 29.6859 34.0538 29.4045L40.206 21.468C40.8827 20.595 42.139 20.4359 43.012 21.1126Z" fill="#EC1C23"/>
</svg>
