<svg width="64" height="64" viewBox="0 0 64 64" fill="none" xmlns="http://www.w3.org/2000/svg">
<path opacity="0.4" d="M46.7466 20.72C46.56 20.6934 46.3733 20.6934 46.1866 20.72C42.0533 20.5867 38.7733 17.2 38.7733 13.04C38.7733 8.80001 42.2133 5.33334 46.48 5.33334C50.72 5.33334 54.1866 8.77334 54.1866 13.04C54.16 17.2 50.88 20.5867 46.7466 20.72Z" fill="#EC1C23"/>
<path opacity="0.4" d="M55.4399 39.2C52.4533 41.2 48.2666 41.9466 44.3999 41.44C45.4133 39.2533 45.9466 36.8267 45.9733 34.2667C45.9733 31.6 45.3866 29.0667 44.2666 26.8533C48.2133 26.32 52.3999 27.0666 55.4133 29.0666C59.6266 31.84 59.6266 36.4 55.4399 39.2Z" fill="#EC1C23"/>
<path opacity="0.4" d="M17.1734 20.72C17.3601 20.6934 17.5467 20.6934 17.7334 20.72C21.8667 20.5867 25.1467 17.2 25.1467 13.04C25.1467 8.80001 21.7067 5.33334 17.4401 5.33334C13.2001 5.33334 9.7334 8.77334 9.7334 13.04C9.76007 17.2 13.0401 20.5867 17.1734 20.72Z" fill="#EC1C23"/>
<path opacity="0.4" d="M17.4666 34.2667C17.4666 36.8533 18.0266 39.3067 19.0399 41.52C15.2799 41.92 11.3599 41.12 8.47995 39.2267C4.26661 36.4267 4.26661 31.8666 8.47995 29.0666C11.3333 27.1466 15.3599 26.3733 19.1466 26.8C18.0533 29.04 17.4666 31.5733 17.4666 34.2667Z" fill="#EC1C23"/>
<path d="M32.32 42.32C32.1067 42.2933 31.8667 42.2933 31.6267 42.32C26.7201 42.16 22.8 38.1333 22.8 33.1733C22.8 28.1067 26.8801 24 31.9734 24C37.0401 24 41.1467 28.1067 41.1467 33.1733C41.1467 38.1333 37.2534 42.16 32.32 42.32Z" fill="#EC1C23"/>
<path d="M23.6533 47.84C19.6266 50.5333 19.6266 54.96 23.6533 57.6267C28.24 60.6933 35.76 60.6933 40.3466 57.6267C44.3733 54.9333 44.3733 50.5067 40.3466 47.84C35.7866 44.7733 28.2666 44.7733 23.6533 47.84Z" fill="#EC1C23"/>
</svg>
