<svg width="200" height="57" viewBox="0 0 200 57" fill="none" xmlns="http://www.w3.org/2000/svg">
<path d="M56 25C55.5688 26.2527 54.7398 27.8433 54 29C50.8662 33.9149 45.3122 36 40 36C39.5428 36 39.4572 36.0384 39 36C39.2528 36.3651 39.7138 36.658 40 37C43.3494 40.9734 48.3383 43.0452 53 42C55.6134 36.8507 56.7026 30.6911 56 25Z" fill="#EC1C23"/>
<path d="M35 41.9999C31.4663 37.938 29.6298 32.3725 30 26.9999C30.3702 21.6273 32.9435 16.5383 37 12.9999C40.0605 10.3289 43.2487 8.51192 47 7.99988C36.6583 -1.6486 20.895 -1.50339 10 7.99988C-1.64681 18.1566 -3.14325 35.3376 7 46.9999C17.1432 58.6621 34.3532 60.1566 46 49.9999C46.5877 49.4878 47.4657 49.5463 48 48.9999C42.9894 48.5604 38.5566 46.0924 35 41.9999Z" fill="#EC1C23"/>
<path d="M50 27C52.4177 23.3804 52.8328 18.6273 51 15C50.8051 14.9923 50.195 15 50 15C46.7011 15 43.679 15.6998 41 18C38.1456 20.4541 36.2613 24.2727 36 28C35.9221 29.1347 35.809 29.9076 36 31C41.0225 32.7117 46.9468 31.5697 50 27Z" fill="#EC1C23"/>
<path d="M68.9811 10.202C67.9431 10.202 67.1498 9.91952 66.6013 9.35456C65.8655 8.66148 65.4976 7.66294 65.4976 6.35891C65.4976 5.0286 65.8655 4.03006 66.6013 3.36326C67.1498 2.79829 67.9431 2.51581 68.9811 2.51581C70.019 2.51581 70.8123 2.79829 71.3608 3.36326C72.0933 4.03006 72.4596 5.0286 72.4596 6.35891C72.4596 7.66294 72.0933 8.66148 71.3608 9.35456C70.8123 9.91952 70.019 10.202 68.9811 10.202ZM70.4148 8.2509C70.7663 7.80746 70.942 7.1768 70.942 6.35891C70.942 5.5443 70.7647 4.91528 70.4099 4.47185C70.0584 4.02513 69.5822 3.80177 68.9811 3.80177C68.38 3.80177 67.9004 4.02349 67.5424 4.46692C67.1843 4.91036 67.0053 5.54102 67.0053 6.35891C67.0053 7.1768 67.1843 7.80746 67.5424 8.2509C67.9004 8.69433 68.38 8.91605 68.9811 8.91605C69.5822 8.91605 70.0601 8.69433 70.4148 8.2509ZM73.5041 2.73753H75.0118V10H73.5041V2.73753ZM82.3038 10H80.7863L77.8202 4.84138V10H76.4061V2.73753H77.9976L80.8897 7.80746V2.73753H82.3038V10ZM86.8071 7.38866H85.265V10H83.7573V2.73753H86.9205C87.6497 2.73753 88.231 2.92475 88.6646 3.29921C89.0982 3.67367 89.315 4.25342 89.315 5.03846C89.315 5.89577 89.0982 6.50179 88.6646 6.85654C88.231 7.21129 87.6119 7.38866 86.8071 7.38866ZM87.5166 5.87606C87.7137 5.70197 87.8122 5.42605 87.8122 5.04831C87.8122 4.67057 87.7121 4.40123 87.5117 4.24028C87.3146 4.07933 87.0371 3.99885 86.679 3.99885H85.265V6.13719H86.679C87.0371 6.13719 87.3163 6.05015 87.5166 5.87606ZM89.9161 6.5215H92.7442V7.85181H89.9161V6.5215ZM101.677 6.82698H98.1492V8.69433H102.17V10H96.6662V2.73753H101.992V4.02349H98.1492V5.56565H101.677V6.82698ZM105.988 8.95054C106.346 8.95054 106.637 8.91112 106.86 8.83229C107.284 8.68119 107.496 8.40035 107.496 7.98976C107.496 7.74998 107.391 7.56439 107.18 7.43301C106.97 7.3049 106.64 7.19158 106.19 7.09304L105.422 6.92059C104.666 6.74979 104.144 6.5642 103.855 6.36384C103.365 6.0288 103.121 5.50489 103.121 4.79211C103.121 4.14174 103.357 3.6014 103.83 3.17111C104.303 2.74081 104.998 2.52566 105.914 2.52566C106.68 2.52566 107.332 2.72931 107.87 3.13662C108.412 3.54064 108.696 4.1286 108.723 4.9005H107.264C107.238 4.46364 107.047 4.15323 106.693 3.96929C106.456 3.84775 106.162 3.78699 105.811 3.78699C105.42 3.78699 105.108 3.86582 104.875 4.02349C104.641 4.18115 104.525 4.40123 104.525 4.68371C104.525 4.9432 104.64 5.137 104.87 5.2651C105.018 5.35051 105.333 5.45069 105.816 5.56565L107.067 5.8662C107.616 5.99759 108.03 6.17332 108.309 6.3934C108.742 6.73501 108.959 7.22935 108.959 7.87644C108.959 8.53995 108.705 9.09178 108.195 9.53193C107.69 9.9688 106.974 10.1872 106.047 10.1872C105.101 10.1872 104.357 9.97208 103.815 9.54178C103.273 9.1082 103.002 8.51367 103.002 7.75819H104.451C104.497 8.08995 104.587 8.33794 104.722 8.50218C104.968 8.80108 105.39 8.95054 105.988 8.95054Z" fill="#111111"/>
<path d="M77.4324 23.2263H69.9014V27.2127H78.4842V30H66.7355V14.4963H78.1056V17.2415H69.9014V20.5337H77.4324V23.2263ZM86.1625 20.7546C85.1457 20.7546 84.448 21.1858 84.0694 22.0483C83.873 22.5041 83.7749 23.0861 83.7749 23.7943V30H80.7877V18.5563H83.6802V20.2287C84.0659 19.6396 84.4305 19.2154 84.7741 18.956C85.3911 18.4932 86.173 18.2618 87.1196 18.2618C88.3047 18.2618 89.2723 18.5738 90.0226 19.1979C90.7799 19.815 91.1586 20.8422 91.1586 22.2797V30H88.0873V23.0265C88.0873 22.4234 88.0066 21.9606 87.8454 21.6381C87.5509 21.0491 86.9899 20.7546 86.1625 20.7546ZM99.1839 27.8648V30.1052L97.764 30.1578C96.3475 30.2069 95.3798 29.9614 94.861 29.4215C94.5244 29.0779 94.3561 28.5485 94.3561 27.8333V20.7756H92.7573V18.6404H94.3561V15.4429H97.3222V18.6404H99.1839V20.7756H97.3222V26.834C97.3222 27.3039 97.3818 27.5984 97.501 27.7176C97.6202 27.8298 97.9848 27.8859 98.5949 27.8859C98.686 27.8859 98.7807 27.8859 98.8789 27.8859C98.9841 27.8788 99.0857 27.8718 99.1839 27.8648ZM106.873 21.3015C105.667 21.3015 104.857 21.6942 104.443 22.4795C104.212 22.9213 104.096 23.6015 104.096 24.5201V30H101.077V18.5352H103.938V20.5337C104.401 19.7694 104.804 19.247 105.148 18.9665C105.709 18.4967 106.438 18.2618 107.335 18.2618C107.392 18.2618 107.437 18.2653 107.472 18.2723C107.514 18.2723 107.602 18.2758 107.735 18.2828V21.3541C107.546 21.3331 107.378 21.319 107.23 21.312C107.083 21.305 106.964 21.3015 106.873 21.3015ZM119.316 26.6342C119.238 27.3144 118.884 28.0051 118.253 28.7063C117.272 29.8212 115.897 30.3787 114.13 30.3787C112.672 30.3787 111.385 29.9088 110.27 28.9692C109.155 28.0296 108.598 26.501 108.598 24.3833C108.598 22.3989 109.099 20.8773 110.102 19.8185C111.111 18.7596 112.419 18.2302 114.025 18.2302C114.979 18.2302 115.838 18.409 116.602 18.7666C117.366 19.1243 117.997 19.6887 118.495 20.4601C118.944 21.1402 119.235 21.9291 119.368 22.8266C119.445 23.3525 119.477 24.1099 119.463 25.0986H111.616C111.658 26.2485 112.02 27.0549 112.7 27.5177C113.113 27.8052 113.611 27.949 114.193 27.949C114.81 27.949 115.312 27.7737 115.697 27.4231C115.908 27.2337 116.094 26.9708 116.255 26.6342H119.316ZM116.349 23.1211C116.3 22.3288 116.058 21.7292 115.624 21.3225C115.196 20.9088 114.663 20.702 114.025 20.702C113.331 20.702 112.791 20.9194 112.405 21.3541C112.027 21.7889 111.788 22.3779 111.69 23.1211H116.349ZM131.096 19.7659C132.021 20.7546 132.484 22.2061 132.484 24.1204C132.484 26.1398 132.028 27.679 131.117 28.7378C130.212 29.7966 129.045 30.3261 127.614 30.3261C126.703 30.3261 125.946 30.0982 125.342 29.6424C125.013 29.3899 124.69 29.0218 124.375 28.538V34.5123H121.409V18.5352H124.28V20.2287C124.603 19.7308 124.946 19.3381 125.311 19.0506C125.977 18.5388 126.769 18.2828 127.688 18.2828C129.027 18.2828 130.163 18.7772 131.096 19.7659ZM129.392 24.2676C129.392 23.3841 129.189 22.6023 128.782 21.9221C128.382 21.2419 127.73 20.9018 126.826 20.9018C125.739 20.9018 124.992 21.4172 124.585 22.448C124.375 22.9949 124.27 23.6891 124.27 24.5306C124.27 25.8629 124.624 26.799 125.332 27.3389C125.753 27.6545 126.251 27.8122 126.826 27.8122C127.66 27.8122 128.295 27.4897 128.729 26.8446C129.171 26.1995 129.392 25.3405 129.392 24.2676ZM140.425 21.3015C139.219 21.3015 138.409 21.6942 137.996 22.4795C137.764 22.9213 137.649 23.6015 137.649 24.5201V30H134.63V18.5352H137.491V20.5337C137.954 19.7694 138.357 19.247 138.7 18.9665C139.261 18.4967 139.991 18.2618 140.888 18.2618C140.944 18.2618 140.99 18.2653 141.025 18.2723C141.067 18.2723 141.155 18.2758 141.288 18.2828V21.3541C141.099 21.3331 140.93 21.319 140.783 21.312C140.636 21.305 140.517 21.3015 140.425 21.3015ZM152.868 26.6342C152.791 27.3144 152.437 28.0051 151.806 28.7063C150.824 29.8212 149.45 30.3787 147.683 30.3787C146.224 30.3787 144.938 29.9088 143.823 28.9692C142.708 28.0296 142.15 26.501 142.15 24.3833C142.15 22.3989 142.652 20.8773 143.655 19.8185C144.664 18.7596 145.972 18.2302 147.578 18.2302C148.531 18.2302 149.39 18.409 150.155 18.7666C150.919 19.1243 151.55 19.6887 152.048 20.4601C152.497 21.1402 152.788 21.9291 152.921 22.8266C152.998 23.3525 153.03 24.1099 153.016 25.0986H145.169C145.211 26.2485 145.572 27.0549 146.253 27.5177C146.666 27.8052 147.164 27.949 147.746 27.949C148.363 27.949 148.865 27.7737 149.25 27.4231C149.461 27.2337 149.646 26.9708 149.808 26.6342H152.868ZM149.902 23.1211C149.853 22.3288 149.611 21.7292 149.177 21.3225C148.749 20.9088 148.216 20.702 147.578 20.702C146.884 20.702 146.344 20.9194 145.958 21.3541C145.579 21.7889 145.341 22.3779 145.243 23.1211H149.902ZM160.441 20.7546C159.425 20.7546 158.727 21.1858 158.348 22.0483C158.152 22.5041 158.054 23.0861 158.054 23.7943V30H155.067V18.5563H157.959V20.2287C158.345 19.6396 158.709 19.2154 159.053 18.956C159.67 18.4932 160.452 18.2618 161.399 18.2618C162.584 18.2618 163.551 18.5738 164.302 19.1979C165.059 19.815 165.438 20.8422 165.438 22.2797V30H162.366V23.0265C162.366 22.4234 162.286 21.9606 162.124 21.6381C161.83 21.0491 161.269 20.7546 160.441 20.7546ZM178.028 26.6342C177.951 27.3144 177.597 28.0051 176.965 28.7063C175.984 29.8212 174.609 30.3787 172.842 30.3787C171.384 30.3787 170.097 29.9088 168.982 28.9692C167.867 28.0296 167.31 26.501 167.31 24.3833C167.31 22.3989 167.811 20.8773 168.814 19.8185C169.824 18.7596 171.131 18.2302 172.737 18.2302C173.691 18.2302 174.55 18.409 175.314 18.7666C176.078 19.1243 176.709 19.6887 177.207 20.4601C177.656 21.1402 177.947 21.9291 178.08 22.8266C178.157 23.3525 178.189 24.1099 178.175 25.0986H170.328C170.371 26.2485 170.732 27.0549 171.412 27.5177C171.826 27.8052 172.323 27.949 172.905 27.949C173.522 27.949 174.024 27.7737 174.41 27.4231C174.62 27.2337 174.806 26.9708 174.967 26.6342H178.028ZM175.062 23.1211C175.013 22.3288 174.771 21.7292 174.336 21.3225C173.908 20.9088 173.375 20.702 172.737 20.702C172.043 20.702 171.503 20.9194 171.117 21.3541C170.739 21.7889 170.5 22.3779 170.402 23.1211H175.062ZM187.557 28.3802C187.529 28.4153 187.459 28.5205 187.347 28.6958C187.235 28.8711 187.101 29.0253 186.947 29.1586C186.477 29.5793 186.022 29.8668 185.58 30.021C185.145 30.1753 184.633 30.2524 184.044 30.2524C182.347 30.2524 181.204 29.6424 180.615 28.4223C180.286 27.7491 180.121 26.7569 180.121 25.4457V18.5352H183.192V25.4457C183.192 26.0978 183.269 26.5886 183.424 26.9182C183.697 27.5002 184.233 27.7912 185.033 27.7912C186.057 27.7912 186.758 27.3775 187.136 26.5501C187.333 26.1013 187.431 25.5088 187.431 24.7725V18.5352H190.471V30H187.557V28.3802ZM199.138 21.3015C197.932 21.3015 197.122 21.6942 196.708 22.4795C196.477 22.9213 196.361 23.6015 196.361 24.5201V30H193.342V18.5352H196.203V20.5337C196.666 19.7694 197.069 19.247 197.413 18.9665C197.974 18.4967 198.703 18.2618 199.6 18.2618C199.657 18.2618 199.702 18.2653 199.737 18.2723C199.779 18.2723 199.867 18.2758 200 18.2828V21.3541C199.811 21.3331 199.642 21.319 199.495 21.312C199.348 21.305 199.229 21.3015 199.138 21.3015Z" fill="#111111"/>
<path d="M73.2252 42.4254H69.933V48H66.7145V32.4963H73.4671C75.0238 32.4963 76.2649 32.896 77.1905 33.6954C78.1161 34.4947 78.5789 35.7324 78.5789 37.4082C78.5789 39.2384 78.1161 40.5321 77.1905 41.2894C76.2649 42.0467 74.9431 42.4254 73.2252 42.4254ZM74.7398 39.1963C75.1605 38.8247 75.3709 38.2357 75.3709 37.4293C75.3709 36.6229 75.157 36.0479 74.7293 35.7043C74.3085 35.3607 73.716 35.1889 72.9517 35.1889H69.933V39.7538H72.9517C73.716 39.7538 74.312 39.568 74.7398 39.1963ZM83.8485 36.5352V48H80.8087V36.5352H83.8485ZM83.8485 32.4016V35.1679H80.8087V32.4016H83.8485ZM86.8251 32.4963H89.8228V48H86.8251V32.4963ZM102.318 37.9867C103.286 39.1998 103.77 40.6338 103.77 42.2887C103.77 43.9716 103.286 45.4125 102.318 46.6116C101.351 47.8037 99.8816 48.3997 97.9112 48.3997C95.9408 48.3997 94.4718 47.8037 93.5041 46.6116C92.5364 45.4125 92.0526 43.9716 92.0526 42.2887C92.0526 40.6338 92.5364 39.1998 93.5041 37.9867C94.4718 36.7737 95.9408 36.1671 97.9112 36.1671C99.8816 36.1671 101.351 36.7737 102.318 37.9867ZM97.9007 38.702C97.0242 38.702 96.3475 39.014 95.8707 39.6381C95.4009 40.2552 95.166 41.1387 95.166 42.2887C95.166 43.4386 95.4009 44.3257 95.8707 44.9497C96.3475 45.5738 97.0242 45.8859 97.9007 45.8859C98.7772 45.8859 99.4504 45.5738 99.9202 44.9497C100.39 44.3257 100.625 43.4386 100.625 42.2887C100.625 41.1387 100.39 40.2552 99.9202 39.6381C99.4504 39.014 98.7772 38.702 97.9007 38.702ZM111.175 45.8648V48.1052L109.755 48.1578C108.338 48.2069 107.371 47.9614 106.852 47.4215C106.515 47.0779 106.347 46.5485 106.347 45.8333V38.7756H104.748V36.6404H106.347V33.4429H109.313V36.6404H111.175V38.7756H109.313V44.834C109.313 45.3039 109.372 45.5984 109.492 45.7176C109.611 45.8298 109.975 45.8859 110.586 45.8859C110.677 45.8859 110.771 45.8859 110.87 45.8859C110.975 45.8788 111.076 45.8718 111.175 45.8648Z" fill="#111111"/>
</svg>
