<svg width="286" height="81" viewBox="0 0 286 81" fill="none" xmlns="http://www.w3.org/2000/svg">
<path d="M79.9999 35.2856C79.3839 37.0753 78.1996 39.3475 77.1428 40.9999C72.6659 48.0212 64.7317 50.9999 57.1428 50.9999C56.4896 50.9999 56.3674 51.0548 55.7142 50.9999C56.0754 51.5214 56.7339 51.9399 57.1428 52.4285C61.9277 58.1048 69.0547 61.0645 75.7142 59.5714C79.4476 52.2152 81.0037 43.4159 79.9999 35.2856Z" fill="#EC1C23"/>
<path d="M49.9999 59.5714C44.9518 53.7687 42.3283 45.818 42.8571 38.1429C43.3859 30.4678 47.062 23.1977 52.8571 18.1429C57.2293 14.3271 61.7839 11.7315 67.1428 11C52.369 -2.78354 29.85 -2.5761 14.2857 11C-2.35263 25.5096 -4.49042 50.0539 9.99994 66.7143C24.4903 83.3746 49.0759 85.5096 65.7142 71C66.5538 70.2685 67.8082 70.3521 68.5714 69.5714C61.4134 68.9437 55.0808 65.4178 49.9999 59.5714Z" fill="#EC1C23"/>
<path d="M71.4285 38.1429C74.8823 32.972 75.4752 26.1819 72.857 21C72.5785 20.989 71.707 21 71.4285 21C66.7157 21 62.3984 21.9996 58.5713 25.2857C54.4936 28.7916 51.8017 34.2467 51.4285 39.5714C51.3171 41.1925 51.1555 42.2965 51.4285 43.8571C58.6035 46.3025 67.0667 44.671 71.4285 38.1429Z" fill="#EC1C23"/>
<path d="M98.5444 14.2886C97.0616 14.2886 95.9284 13.885 95.1447 13.0779C94.0936 12.0878 93.5681 10.6613 93.5681 8.79844C93.5681 6.89801 94.0936 5.47151 95.1447 4.51894C95.9284 3.71185 97.0616 3.3083 98.5444 3.3083C100.027 3.3083 101.16 3.71185 101.944 4.51894C102.99 5.47151 103.514 6.89801 103.514 8.79844C103.514 10.6613 102.99 12.0878 101.944 13.0779C101.16 13.885 100.027 14.2886 98.5444 14.2886ZM100.593 11.5013C101.095 10.8678 101.346 9.96686 101.346 8.79844C101.346 7.63472 101.092 6.73612 100.586 6.10264C100.084 5.46447 99.4031 5.14538 98.5444 5.14538C97.6857 5.14538 97.0006 5.46212 96.4891 6.0956C95.9776 6.72908 95.7219 7.63003 95.7219 8.79844C95.7219 9.96686 95.9776 10.8678 96.4891 11.5013C97.0006 12.1348 97.6857 12.4515 98.5444 12.4515C99.4031 12.4515 100.086 12.1348 100.593 11.5013ZM105.006 3.62504H107.16V14H105.006V3.62504ZM117.577 14H115.409L111.172 6.63054V14H109.152V3.62504H111.425L115.557 10.8678V3.62504H117.577V14ZM124.01 10.2695H121.807V14H119.653V3.62504H124.172C125.214 3.62504 126.044 3.89251 126.664 4.42744C127.283 4.96238 127.593 5.79059 127.593 6.91208C127.593 8.13681 127.283 9.00256 126.664 9.50934C126.044 10.0161 125.16 10.2695 124.01 10.2695ZM125.024 8.10865C125.305 7.85995 125.446 7.46579 125.446 6.92616C125.446 6.38653 125.303 6.00175 125.017 5.77182C124.735 5.54189 124.339 5.42693 123.827 5.42693H121.807V8.4817H123.827C124.339 8.4817 124.738 8.35735 125.024 8.10865ZM128.452 9.03072H132.492V10.9312H128.452V9.03072ZM145.253 9.46711H140.213V12.1348H145.957V14H138.095V3.62504H145.703V5.46212H140.213V7.66522H145.253V9.46711ZM151.412 12.5008C151.923 12.5008 152.338 12.4445 152.658 12.3318C153.263 12.116 153.565 11.7148 153.565 11.1282C153.565 10.7857 153.415 10.5206 153.115 10.3329C152.815 10.1499 152.343 9.98797 151.7 9.8472L150.602 9.60085C149.523 9.35684 148.777 9.09172 148.364 8.80548C147.665 8.32685 147.315 7.57841 147.315 6.56015C147.315 5.63105 147.653 4.85915 148.329 4.24444C149.004 3.62973 149.997 3.32237 151.306 3.32237C152.399 3.32237 153.331 3.61331 154.1 4.19517C154.875 4.77234 155.281 5.61228 155.318 6.715H153.235C153.197 6.09091 152.925 5.64747 152.418 5.3847C152.08 5.21108 151.66 5.12427 151.158 5.12427C150.6 5.12427 150.154 5.23689 149.821 5.46212C149.488 5.68736 149.321 6.00175 149.321 6.4053C149.321 6.776 149.485 7.05286 149.814 7.23586C150.025 7.35786 150.476 7.50098 151.165 7.66522L152.953 8.09458C153.737 8.28227 154.328 8.53332 154.727 8.84771C155.346 9.33572 155.656 10.0419 155.656 10.9663C155.656 11.9142 155.292 12.7025 154.565 13.3313C153.842 13.9554 152.819 14.2675 151.496 14.2675C150.145 14.2675 149.082 13.9601 148.308 13.3454C147.533 12.726 147.146 11.8767 147.146 10.7974H149.216C149.281 11.2714 149.41 11.6256 149.603 11.8603C149.955 12.2873 150.558 12.5008 151.412 12.5008Z" fill="white"/>
<path d="M110.618 32.1805H99.8592V37.8753H112.12V41.8572H95.3364V19.709H111.579V23.6308H99.8592V28.3339H110.618V32.1805ZM123.089 28.6494C121.637 28.6494 120.64 29.2655 120.099 30.4976C119.819 31.1487 119.678 31.9802 119.678 32.9919V41.8572H115.411V25.509H119.543V27.8981C120.094 27.0567 120.615 26.4506 121.106 26.08C121.987 25.4189 123.104 25.0883 124.457 25.0883C126.15 25.0883 127.532 25.5341 128.604 26.4256C129.686 27.3071 130.227 28.7746 130.227 30.8282V41.8572H125.839V31.895C125.839 31.0335 125.724 30.3724 125.493 29.9116C125.073 29.0701 124.271 28.6494 123.089 28.6494ZM141.691 38.8069V42.0074L139.663 42.0826C137.639 42.1527 136.257 41.8021 135.516 41.0308C135.035 40.5399 134.794 39.7836 134.794 38.7618V28.6795H132.511V25.6292H134.794V21.0613H139.032V25.6292H141.691V28.6795H139.032V37.3344C139.032 38.0055 139.117 38.4263 139.287 38.5966C139.457 38.7568 139.978 38.837 140.85 38.837C140.98 38.837 141.115 38.837 141.256 38.837C141.406 38.827 141.551 38.8169 141.691 38.8069ZM152.675 29.4308C150.952 29.4308 149.795 29.9917 149.204 31.1137C148.874 31.7448 148.708 32.7164 148.708 34.0287V41.8572H144.396V25.479H148.483V28.3339C149.144 27.242 149.72 26.4957 150.211 26.095C151.012 25.4239 152.054 25.0883 153.336 25.0883C153.417 25.0883 153.482 25.0933 153.532 25.1033C153.592 25.1033 153.717 25.1083 153.907 25.1183V29.5059C153.637 29.4758 153.396 29.4558 153.186 29.4458C152.976 29.4358 152.805 29.4308 152.675 29.4308ZM170.451 37.0489C170.341 38.0206 169.835 39.0073 168.933 40.009C167.531 41.6017 165.567 42.3981 163.043 42.3981C160.96 42.3981 159.121 41.727 157.529 40.3846C155.936 39.0423 155.139 36.8586 155.139 33.8334C155.139 30.9985 155.856 28.8247 157.288 27.3121C158.731 25.7995 160.599 25.0432 162.893 25.0432C164.255 25.0432 165.482 25.2986 166.574 25.8095C167.666 26.3204 168.568 27.1268 169.279 28.2287C169.92 29.2004 170.336 30.3273 170.526 31.6095C170.636 32.3608 170.681 33.4427 170.661 34.8551H159.452C159.512 36.4979 160.028 37.6499 161 38.3111C161.591 38.7218 162.302 38.9271 163.133 38.9271C164.015 38.9271 164.731 38.6767 165.282 38.1758C165.582 37.9054 165.848 37.5297 166.078 37.0489H170.451ZM166.214 32.0302C166.143 30.8983 165.798 30.0418 165.177 29.4608C164.566 28.8698 163.804 28.5743 162.893 28.5743C161.901 28.5743 161.13 28.8848 160.579 29.5059C160.038 30.127 159.697 30.9684 159.557 32.0302H166.214ZM187.28 27.237C188.602 28.6494 189.263 30.723 189.263 33.4577C189.263 36.3427 188.612 38.5415 187.31 40.0541C186.018 41.5667 184.35 42.323 182.306 42.323C181.004 42.323 179.922 41.9974 179.061 41.3463C178.59 40.9857 178.129 40.4598 177.678 39.7686V48.3033H173.441V25.479H177.543V27.8981C178.004 27.1869 178.495 26.6259 179.016 26.2152C179.967 25.484 181.099 25.1183 182.411 25.1183C184.325 25.1183 185.948 25.8246 187.28 27.237ZM184.846 33.6681C184.846 32.4059 184.555 31.289 183.974 30.3173C183.403 29.3456 182.472 28.8598 181.179 28.8598C179.627 28.8598 178.56 29.5961 177.979 31.0686C177.678 31.8499 177.528 32.8416 177.528 34.0437C177.528 35.947 178.034 37.2843 179.046 38.0556C179.647 38.5064 180.358 38.7318 181.179 38.7318C182.371 38.7318 183.278 38.271 183.899 37.3494C184.53 36.4278 184.846 35.2007 184.846 33.6681ZM200.608 29.4308C198.885 29.4308 197.728 29.9917 197.137 31.1137C196.806 31.7448 196.641 32.7164 196.641 34.0287V41.8572H192.329V25.479H196.416V28.3339C197.077 27.242 197.653 26.4957 198.144 26.095C198.945 25.4239 199.987 25.0883 201.269 25.0883C201.349 25.0883 201.414 25.0933 201.464 25.1033C201.524 25.1033 201.65 25.1083 201.84 25.1183V29.5059C201.57 29.4758 201.329 29.4558 201.119 29.4458C200.908 29.4358 200.738 29.4308 200.608 29.4308ZM218.383 37.0489C218.273 38.0206 217.767 39.0073 216.866 40.009C215.463 41.6017 213.5 42.3981 210.976 42.3981C208.892 42.3981 207.054 41.727 205.461 40.3846C203.868 39.0423 203.072 36.8586 203.072 33.8334C203.072 30.9985 203.788 28.8247 205.221 27.3121C206.663 25.7995 208.531 25.0432 210.825 25.0432C212.188 25.0432 213.415 25.2986 214.507 25.8095C215.599 26.3204 216.5 27.1268 217.211 28.2287C217.853 29.2004 218.268 30.3273 218.459 31.6095C218.569 32.3608 218.614 33.4427 218.594 34.8551H207.385C207.445 36.4979 207.961 37.6499 208.932 38.3111C209.523 38.7218 210.234 38.9271 211.066 38.9271C211.947 38.9271 212.664 38.6767 213.215 38.1758C213.515 37.9054 213.781 37.5297 214.011 37.0489H218.383ZM214.146 32.0302C214.076 30.8983 213.73 30.0418 213.109 29.4608C212.498 28.8698 211.737 28.5743 210.825 28.5743C209.834 28.5743 209.062 28.8848 208.511 29.5059C207.971 30.127 207.63 30.9684 207.49 32.0302H214.146ZM229.202 28.6494C227.75 28.6494 226.753 29.2655 226.212 30.4976C225.931 31.1487 225.791 31.9802 225.791 32.9919V41.8572H221.524V25.509H225.656V27.8981C226.207 27.0567 226.728 26.4506 227.219 26.08C228.1 25.4189 229.217 25.0883 230.569 25.0883C232.262 25.0883 233.645 25.5341 234.717 26.4256C235.798 27.3071 236.339 28.7746 236.339 30.8282V41.8572H231.952V31.895C231.952 31.0335 231.837 30.3724 231.606 29.9116C231.186 29.0701 230.384 28.6494 229.202 28.6494ZM254.325 37.0489C254.215 38.0206 253.709 39.0073 252.808 40.009C251.405 41.6017 249.442 42.3981 246.918 42.3981C244.834 42.3981 242.996 41.727 241.403 40.3846C239.81 39.0423 239.014 36.8586 239.014 33.8334C239.014 30.9985 239.73 28.8247 241.163 27.3121C242.605 25.7995 244.473 25.0432 246.767 25.0432C248.13 25.0432 249.357 25.2986 250.449 25.8095C251.541 26.3204 252.442 27.1268 253.153 28.2287C253.794 29.2004 254.21 30.3273 254.401 31.6095C254.511 32.3608 254.556 33.4427 254.536 34.8551H243.326C243.387 36.4979 243.902 37.6499 244.874 38.3111C245.465 38.7218 246.176 38.9271 247.008 38.9271C247.889 38.9271 248.606 38.6767 249.156 38.1758C249.457 37.9054 249.722 37.5297 249.953 37.0489H254.325ZM250.088 32.0302C250.018 30.8983 249.672 30.0418 249.051 29.4608C248.44 28.8698 247.679 28.5743 246.767 28.5743C245.776 28.5743 245.004 28.8848 244.453 29.5059C243.912 30.127 243.572 30.9684 243.432 32.0302H250.088ZM267.939 39.5432C267.899 39.5933 267.799 39.7435 267.638 39.994C267.478 40.2444 267.288 40.4648 267.067 40.6551C266.396 41.2561 265.745 41.6668 265.114 41.8872C264.493 42.1076 263.762 42.2178 262.92 42.2178C260.496 42.2178 258.863 41.3463 258.022 39.6033C257.551 38.6416 257.316 37.2242 257.316 35.351V25.479H261.703V35.351C261.703 36.2826 261.813 36.9838 262.034 37.4546C262.424 38.286 263.191 38.7017 264.333 38.7017C265.795 38.7017 266.797 38.1107 267.338 36.9287C267.618 36.2876 267.759 35.4411 267.759 34.3893V25.479H272.101V41.8572H267.939V39.5432ZM284.482 29.4308C282.759 29.4308 281.602 29.9917 281.011 31.1137C280.681 31.7448 280.516 32.7164 280.516 34.0287V41.8572H276.203V25.479H280.29V28.3339C280.951 27.242 281.527 26.4957 282.018 26.095C282.82 25.4239 283.861 25.0883 285.144 25.0883C285.224 25.0883 285.289 25.0933 285.339 25.1033C285.399 25.1033 285.524 25.1083 285.714 25.1183V29.5059C285.444 29.4758 285.204 29.4558 284.993 29.4458C284.783 29.4358 284.613 29.4308 284.482 29.4308Z" fill="white"/>
<path d="M104.607 59.6078H99.9043V67.5715H95.3064V45.4234H104.953C107.177 45.4234 108.95 45.9944 110.272 47.1363C111.594 48.2783 112.256 50.0463 112.256 52.4405C112.256 55.055 111.594 56.9032 110.272 57.985C108.95 59.0669 107.062 59.6078 104.607 59.6078ZM106.771 54.9949C107.372 54.4639 107.673 53.6225 107.673 52.4705C107.673 51.3185 107.367 50.4971 106.756 50.0063C106.155 49.5154 105.309 49.27 104.217 49.27H99.9043V55.7912H104.217C105.309 55.7912 106.16 55.5258 106.771 54.9949ZM119.784 51.1933V67.5715H115.441V51.1933H119.784ZM119.784 45.2881V49.2399H115.441V45.2881H119.784ZM124.036 45.4234H128.318V67.5715H124.036V45.4234ZM146.169 53.2669C147.551 54.9999 148.243 57.0484 148.243 59.4125C148.243 61.8166 147.551 63.8752 146.169 65.5881C144.787 67.291 142.688 68.1425 139.873 68.1425C137.058 68.1425 134.96 67.291 133.577 65.5881C132.195 63.8752 131.504 61.8166 131.504 59.4125C131.504 57.0484 132.195 54.9999 133.577 53.2669C134.96 51.5339 137.058 50.6674 139.873 50.6674C142.688 50.6674 144.787 51.5339 146.169 53.2669ZM139.858 54.2886C138.606 54.2886 137.639 54.7344 136.958 55.6259C136.287 56.5075 135.951 57.7696 135.951 59.4125C135.951 61.0553 136.287 62.3225 136.958 63.214C137.639 64.1056 138.606 64.5513 139.858 64.5513C141.11 64.5513 142.072 64.1056 142.743 63.214C143.414 62.3225 143.75 61.0553 143.75 59.4125C143.75 57.7696 143.414 56.5075 142.743 55.6259C142.072 54.7344 141.11 54.2886 139.858 54.2886ZM158.821 64.5213V67.7218L156.792 67.7969C154.769 67.867 153.386 67.5164 152.645 66.7451C152.164 66.2543 151.924 65.498 151.924 64.4762V54.3938H149.64V51.3436H151.924V46.7757H156.161V51.3436H158.821V54.3938H156.161V63.0487C156.161 63.7199 156.246 64.1406 156.417 64.3109C156.587 64.4712 157.108 64.5513 157.979 64.5513C158.11 64.5513 158.245 64.5513 158.385 64.5513C158.535 64.5413 158.681 64.5313 158.821 64.5213Z" fill="white"/>
</svg>
