<svg width="253" height="50" viewBox="0 0 253 50" fill="none" xmlns="http://www.w3.org/2000/svg">
<path d="M49.8582 21.2218L45.6259 24.4997C45.3355 22.7571 45.6782 18.345 41.3522 11.7614C37.6178 6.07826 29.7159 2.78515 26.9126 2.42554C27.8669 2.54796 29.6926 2.79898 30.6055 3.00644C31.834 3.28567 38.0327 4.95662 42.514 10.3507C46.9952 15.7448 47.4101 20.3505 47.4931 20.6409C47.5761 20.9313 47.7421 21.0558 48.0325 21.0558C48.323 21.0558 49.1529 20.5579 49.6093 20.6409C49.9744 20.7073 49.9274 21.0558 49.8582 21.2218Z" fill="#E6E7E9"/>
<path d="M28.8626 49.9383L25.5876 45.7037C27.3305 45.4145 31.7423 45.7602 38.3289 41.4389C44.0148 37.7085 47.3134 29.809 47.675 27.0059C47.5519 27.9601 47.2996 29.7856 47.0915 30.6983C46.8114 31.9267 45.1361 38.1242 39.7389 42.6017C34.3416 47.0791 29.7356 47.4908 29.4451 47.5736C29.1547 47.6564 29.03 47.8222 29.0298 48.1127C29.0296 48.4032 29.527 49.2334 29.4437 49.6897C29.377 50.0548 29.0285 50.0075 28.8626 49.9383Z" fill="#BCBDC0"/>
<path d="M21.3457 0.0854958L24.6152 4.32432C22.872 4.61129 18.4606 4.25984 11.8684 8.5727C6.17777 12.2957 2.86891 20.191 2.50372 22.9936C2.62804 22.0395 2.8827 20.2143 3.09198 19.3019C3.37366 18.0739 5.05696 11.8786 10.46 7.40809C15.863 2.9376 20.4695 2.53185 20.7601 2.44944C21.0506 2.36703 21.1755 2.20131 21.1761 1.91086C21.1767 1.62041 20.6804 0.789555 20.7643 0.333297C20.8314 -0.0317099 21.1799 0.0160108 21.3457 0.0854958Z" fill="#BCBDC0"/>
<path d="M0.0930995 29.0078L4.33325 25.74C4.61952 27.4834 4.26625 31.8946 8.57643 38.4886C12.2971 44.1807 20.191 47.4928 22.9935 47.8592C22.0395 47.7345 20.2144 47.4791 19.302 47.2694C18.0741 46.9872 11.8795 45.3014 7.41123 39.8965C2.94295 34.4917 2.53909 29.885 2.4568 29.5944C2.37451 29.3038 2.20884 29.1789 1.91839 29.1782C1.62793 29.1775 0.796886 29.6734 0.340663 29.5893C-0.0243169 29.522 0.0235466 29.1736 0.0930995 29.0078Z" fill="#E6E7E9"/>
<path d="M24.9785 40.7129C33.622 40.7129 40.6289 33.706 40.6289 25.0625C40.6289 16.419 33.622 9.41211 24.9785 9.41211C16.335 9.41211 9.32812 16.419 9.32812 25.0625C9.32812 33.706 16.335 40.7129 24.9785 40.7129Z" fill="#39EA9C" stroke="#00B867" stroke-width="0.5"/>
<path d="M35.3516 20.8868L32.9632 23.489C31.7869 22.2056 29.0421 19.3895 25.1922 19.3895C21.1993 19.3895 18.1103 22.1463 17.0647 23.489L14.6051 21.3146C15.7101 19.4253 19.3746 15.6538 25.1922 15.6823C31.0098 15.7109 34.3891 19.1639 35.3516 20.8868Z" fill="#12141C"/>
<path d="M23.124 18.9985V32.3661L25.0133 34.3623L26.8313 32.3661V18.9985H23.124Z" fill="#12141C"/>
<path d="M74.996 12.1741V15.592H68.1601V36.0998H64.7421V15.592H57.9062V12.1741H74.996ZM86.9589 12.1741C88.8502 12.1741 90.4623 12.8406 91.7953 14.1736C93.1283 15.5066 93.7948 17.1187 93.7948 19.01C93.7948 20.9013 93.1283 22.5134 91.7953 23.8464C91.6928 23.949 91.5902 24.0458 91.4877 24.1369C91.5902 24.2281 91.6928 24.3249 91.7953 24.4275C93.1283 25.7605 93.7948 27.3726 93.7948 29.2639C93.7948 31.1552 93.1283 32.7673 91.7953 34.1003C90.4623 35.4333 88.8502 36.0998 86.9589 36.0998H78.414V12.1741H86.9589ZM81.8319 25.8459V32.6819H86.9589C87.9045 32.6819 88.7078 32.3515 89.3686 31.6907C90.0408 31.0185 90.3769 30.2095 90.3769 29.2639C90.3769 28.3183 90.0408 27.515 89.3686 26.8542C88.7078 26.182 87.9045 25.8459 86.9589 25.8459H81.8319ZM86.9589 15.592H81.8319V22.428H86.9589C87.9045 22.428 88.7078 22.0976 89.3686 21.4367C90.0408 20.7645 90.3769 19.9556 90.3769 19.01C90.3769 18.0643 90.0408 17.2611 89.3686 16.6003C88.7078 15.9281 87.9045 15.592 86.9589 15.592ZM105.758 12.1741C109.062 12.1741 111.882 13.3419 114.217 15.6775C116.553 18.0131 117.721 20.8329 117.721 24.1369C117.721 27.441 116.553 30.2608 114.217 32.5964C111.882 34.932 109.062 36.0998 105.758 36.0998H97.2128V12.1741H105.758ZM105.758 32.6819C108.116 32.6819 110.127 31.8502 111.79 30.1867C113.465 28.5119 114.303 26.4953 114.303 24.1369C114.303 21.7785 113.465 19.7676 111.79 18.1042C110.127 16.4294 108.116 15.592 105.758 15.592H100.631V32.6819H105.758ZM133.101 12.1741C135.38 12.1741 138.228 12.7437 141.646 13.883V17.301C138.228 16.1617 135.38 15.592 133.101 15.592C130.743 15.592 128.726 16.4294 127.052 18.1042C125.388 19.7676 124.557 21.7785 124.557 24.1369C124.557 26.4953 125.388 28.5119 127.052 30.1867C128.726 31.8502 130.743 32.6819 133.101 32.6819C135.38 32.6819 138.228 32.1122 141.646 30.9729V34.3908C138.228 35.5302 135.38 36.0998 133.101 36.0998C129.797 36.0998 126.978 34.932 124.642 32.5964C122.306 30.2608 121.139 27.441 121.139 24.1369C121.139 20.8329 122.306 18.0131 124.642 15.6775C126.978 13.3419 129.797 12.1741 133.101 12.1741Z" fill="white"/>
<path d="M153.906 7.89976C153.906 7.67884 153.727 7.49976 153.506 7.49976C153.285 7.49976 153.106 7.67884 153.106 7.89976V42.0998C153.106 42.3207 153.285 42.4998 153.506 42.4998C153.727 42.4998 153.906 42.3207 153.906 42.0998V7.89976Z" fill="#BCBDC0"/>
<path d="M166.203 15.584V16.4434H164.484V21.5996H163.625V16.4434H161.906V15.584H166.203ZM170.07 21.5996C169.239 21.5996 168.531 21.306 167.943 20.7188C167.356 20.1315 167.062 19.4225 167.062 18.5918C167.062 17.7611 167.356 17.0521 167.943 16.4649C168.531 15.8776 169.239 15.584 170.07 15.584C170.901 15.584 171.61 15.8776 172.197 16.4649C172.784 17.0521 173.078 17.7611 173.078 18.5918C173.078 19.4225 172.784 20.1315 172.197 20.7188C171.61 21.306 170.901 21.5996 170.07 21.5996ZM170.07 16.4434C169.477 16.4434 168.97 16.6539 168.549 17.075C168.131 17.4933 167.922 17.9989 167.922 18.5918C167.922 19.1848 168.131 19.6918 168.549 20.1129C168.97 20.5311 169.477 20.7403 170.07 20.7403C170.663 20.7403 171.169 20.5311 171.587 20.1129C172.008 19.6918 172.219 19.1848 172.219 18.5918C172.219 17.9989 172.008 17.4933 171.587 17.075C171.169 16.6539 170.663 16.4434 170.07 16.4434ZM176.086 15.584C176.561 15.584 176.967 15.7516 177.302 16.0867C177.637 16.4219 177.805 16.8272 177.805 17.3028C177.805 17.7783 177.637 18.1836 177.302 18.5188C177.044 18.7766 176.745 18.9356 176.404 18.9957L177.908 21.5996H176.911L175.424 19.0215H174.797V21.5996H173.937V15.584H176.086ZM176.086 16.4434H174.797V18.1621H176.086C176.324 18.1621 176.526 18.0791 176.692 17.9129C176.861 17.7439 176.945 17.5405 176.945 17.3028C176.945 17.065 176.861 16.863 176.692 16.6969C176.526 16.5279 176.324 16.4434 176.086 16.4434ZM181.672 21.5996C180.841 21.5996 180.132 21.306 179.545 20.7188C178.958 20.1315 178.664 19.4225 178.664 18.5918C178.664 17.7611 178.958 17.0521 179.545 16.4649C180.132 15.8776 180.841 15.584 181.672 15.584C182.503 15.584 183.212 15.8776 183.799 16.4649C184.386 17.0521 184.68 17.7611 184.68 18.5918C184.68 19.4225 184.386 20.1315 183.799 20.7188C183.212 21.306 182.503 21.5996 181.672 21.5996ZM181.672 16.4434C181.079 16.4434 180.572 16.6539 180.151 17.075C179.732 17.4933 179.523 17.9989 179.523 18.5918C179.523 19.1848 179.732 19.6918 180.151 20.1129C180.572 20.5311 181.079 20.7403 181.672 20.7403C182.265 20.7403 182.77 20.5311 183.189 20.1129C183.61 19.6918 183.82 19.1848 183.82 18.5918C183.82 17.9989 183.61 17.4933 183.189 17.075C182.77 16.6539 182.265 16.4434 181.672 16.4434ZM186.398 16.9332V21.5996H185.539V15.584H186.592L189.406 20.2504V15.584H190.266V21.5996H189.213L186.398 16.9332ZM195.422 15.584V16.4434H193.703V21.5996H192.844V16.4434H191.125V15.584H195.422ZM199.289 21.5996C198.458 21.5996 197.749 21.306 197.162 20.7188C196.575 20.1315 196.281 19.4225 196.281 18.5918C196.281 17.7611 196.575 17.0521 197.162 16.4649C197.749 15.8776 198.458 15.584 199.289 15.584C200.12 15.584 200.829 15.8776 201.416 16.4649C202.003 17.0521 202.297 17.7611 202.297 18.5918C202.297 19.4225 202.003 20.1315 201.416 20.7188C200.829 21.306 200.12 21.5996 199.289 21.5996ZM199.289 16.4434C198.696 16.4434 198.189 16.6539 197.768 17.075C197.35 17.4933 197.141 17.9989 197.141 18.5918C197.141 19.1848 197.35 19.6918 197.768 20.1129C198.189 20.5311 198.696 20.7403 199.289 20.7403C199.882 20.7403 200.388 20.5311 200.806 20.1129C201.227 19.6918 201.437 19.1848 201.437 18.5918C201.437 17.9989 201.227 17.4933 200.806 17.075C200.388 16.6539 199.882 16.4434 199.289 16.4434ZM207.487 15.584C207.963 15.584 208.368 15.7516 208.703 16.0867C209.039 16.4219 209.206 16.8272 209.206 17.3028C209.206 17.7783 209.039 18.1836 208.703 18.5188C208.678 18.5446 208.652 18.5689 208.626 18.5918C208.652 18.6147 208.678 18.6391 208.703 18.6649C209.039 19 209.206 19.4054 209.206 19.8809C209.206 20.3564 209.039 20.7617 208.703 21.0969C208.368 21.4321 207.963 21.5996 207.487 21.5996H205.339V15.584H207.487ZM206.198 19.0215V20.7403H207.487C207.725 20.7403 207.927 20.6572 208.093 20.491C208.262 20.322 208.347 20.1186 208.347 19.8809C208.347 19.6431 208.262 19.4412 208.093 19.275C207.927 19.106 207.725 19.0215 207.487 19.0215H206.198ZM207.487 16.4434H206.198V18.1621H207.487C207.725 18.1621 207.927 18.0791 208.093 17.9129C208.262 17.7439 208.347 17.5405 208.347 17.3028C208.347 17.065 208.262 16.863 208.093 16.6969C207.927 16.5279 207.725 16.4434 207.487 16.4434ZM210.066 19.0215V15.584H210.925V19.0215C210.925 19.497 211.092 19.9024 211.428 20.2375C211.763 20.5727 212.168 20.7403 212.644 20.7403C213.119 20.7403 213.525 20.5727 213.86 20.2375C214.195 19.9024 214.362 19.497 214.362 19.0215V15.584H215.222V19.0215C215.222 19.7348 214.97 20.3435 214.466 20.8477C213.964 21.349 213.357 21.5996 212.644 21.5996C211.93 21.5996 211.322 21.349 210.817 20.8477C210.316 20.3435 210.066 19.7348 210.066 19.0215ZM217.8 15.584C218.23 15.584 218.803 15.7702 219.519 16.1426V17.002C218.803 16.6296 218.23 16.4434 217.8 16.4434C217.562 16.4434 217.359 16.5279 217.19 16.6969C217.024 16.863 216.941 17.065 216.941 17.3028C216.941 17.6179 217.37 17.9616 218.23 18.334C219.089 18.7064 219.519 19.222 219.519 19.8809C219.519 20.3564 219.351 20.7617 219.016 21.0969C218.681 21.4321 218.275 21.5996 217.8 21.5996C217.37 21.5996 216.797 21.4134 216.081 21.041V20.1817C216.797 20.5541 217.37 20.7403 217.8 20.7403C218.038 20.7403 218.24 20.6572 218.406 20.491C218.575 20.322 218.659 20.1186 218.659 19.8809C218.659 19.5658 218.23 19.222 217.37 18.8496C216.511 18.4772 216.081 17.9616 216.081 17.3028C216.081 16.8272 216.249 16.4219 216.584 16.0867C216.919 15.7516 217.324 15.584 217.8 15.584ZM221.237 21.5996H220.378V15.584H221.237V21.5996ZM222.956 16.9332V21.5996H222.097V15.584H223.15L225.964 20.2504V15.584H226.823V21.5996H225.771L222.956 16.9332ZM231.12 15.584V16.4434H228.542V18.1621H231.12V19.0215H228.542V20.7403H231.12V21.5996H227.683V15.584H231.12ZM233.698 15.584C234.128 15.584 234.701 15.7702 235.417 16.1426V17.002C234.701 16.6296 234.128 16.4434 233.698 16.4434C233.461 16.4434 233.257 16.5279 233.088 16.6969C232.922 16.863 232.839 17.065 232.839 17.3028C232.839 17.6179 233.269 17.9616 234.128 18.334C234.987 18.7064 235.417 19.222 235.417 19.8809C235.417 20.3564 235.25 20.7617 234.914 21.0969C234.579 21.4321 234.174 21.5996 233.698 21.5996C233.269 21.5996 232.696 21.4134 231.98 21.041V20.1817C232.696 20.5541 233.269 20.7403 233.698 20.7403C233.936 20.7403 234.138 20.6572 234.304 20.491C234.473 20.322 234.558 20.1186 234.558 19.8809C234.558 19.5658 234.128 19.222 233.269 18.8496C232.409 18.4772 231.98 17.9616 231.98 17.3028C231.98 16.8272 232.147 16.4219 232.482 16.0867C232.817 15.7516 233.223 15.584 233.698 15.584ZM237.995 15.584C238.425 15.584 238.998 15.7702 239.714 16.1426V17.002C238.998 16.6296 238.425 16.4434 237.995 16.4434C237.757 16.4434 237.554 16.5279 237.385 16.6969C237.219 16.863 237.136 17.065 237.136 17.3028C237.136 17.6179 237.566 17.9616 238.425 18.334C239.284 18.7064 239.714 19.222 239.714 19.8809C239.714 20.3564 239.546 20.7617 239.211 21.0969C238.876 21.4321 238.471 21.5996 237.995 21.5996C237.566 21.5996 236.993 21.4134 236.276 21.041V20.1817C236.993 20.5541 237.566 20.7403 237.995 20.7403C238.233 20.7403 238.435 20.6572 238.601 20.491C238.77 20.322 238.855 20.1186 238.855 19.8809C238.855 19.5658 238.425 19.222 237.566 18.8496C236.706 18.4772 236.276 17.9616 236.276 17.3028C236.276 16.8272 236.444 16.4219 236.779 16.0867C237.114 15.7516 237.52 15.584 237.995 15.584ZM164.055 27.884C164.885 27.884 165.594 28.1776 166.182 28.7649C166.769 29.3521 167.062 30.0611 167.062 30.8918C167.062 31.7225 166.769 32.4315 166.182 33.0188C165.594 33.606 164.885 33.8996 164.055 33.8996H161.906V27.884H164.055ZM164.055 33.0403C164.648 33.0403 165.153 32.8311 165.571 32.4129C165.992 31.9918 166.203 31.4848 166.203 30.8918C166.203 30.2989 165.992 29.7933 165.571 29.375C165.153 28.9539 164.648 28.7434 164.055 28.7434H162.766V33.0403H164.055ZM171.359 27.884V28.7434H168.781V30.4621H171.359V31.3215H168.781V33.0403H171.359V33.8996H167.922V27.884H171.359ZM175.02 33.8996H174.144L171.957 27.884H172.872L174.582 32.5848L176.292 27.884H177.207L175.02 33.8996ZM181.242 27.884V28.7434H178.664V30.4621H181.242V31.3215H178.664V33.0403H181.242V33.8996H177.805V27.884H181.242ZM182.961 33.0403H185.969V33.8996H182.101V27.884H182.961V33.0403ZM189.836 33.8996C189.005 33.8996 188.296 33.606 187.709 33.0188C187.122 32.4315 186.828 31.7225 186.828 30.8918C186.828 30.0611 187.122 29.3521 187.709 28.7649C188.296 28.1776 189.005 27.884 189.836 27.884C190.667 27.884 191.376 28.1776 191.963 28.7649C192.55 29.3521 192.844 30.0611 192.844 30.8918C192.844 31.7225 192.55 32.4315 191.963 33.0188C191.376 33.606 190.667 33.8996 189.836 33.8996ZM189.836 28.7434C189.243 28.7434 188.736 28.9539 188.315 29.375C187.897 29.7933 187.687 30.2989 187.687 30.8918C187.687 31.4848 187.897 31.9918 188.315 32.4129C188.736 32.8311 189.243 33.0403 189.836 33.0403C190.429 33.0403 190.934 32.8311 191.353 32.4129C191.774 31.9918 191.984 31.4848 191.984 30.8918C191.984 30.2989 191.774 29.7933 191.353 29.375C190.934 28.9539 190.429 28.7434 189.836 28.7434ZM195.851 27.884C196.327 27.884 196.732 28.0516 197.067 28.3867C197.403 28.7219 197.57 29.1272 197.57 29.6028C197.57 30.0783 197.403 30.4836 197.067 30.8188C196.732 31.1539 196.327 31.3215 195.851 31.3215H194.562V33.8996H193.703V27.884H195.851ZM195.851 28.7434H194.562V30.4621H195.851C196.089 30.4621 196.291 30.3791 196.457 30.2129C196.626 30.0439 196.711 29.8405 196.711 29.6028C196.711 29.365 196.626 29.163 196.457 28.9969C196.291 28.8279 196.089 28.7434 195.851 28.7434ZM199.289 29.2332V33.8996H198.43V27.884H199.482L201.437 31.1281L203.392 27.884H204.445V33.8996H203.586V29.2332L201.437 32.7953L199.289 29.2332ZM208.742 27.884V28.7434H206.164V30.4621H208.742V31.3215H206.164V33.0403H208.742V33.8996H205.305V27.884H208.742ZM210.461 29.2332V33.8996H209.601V27.884H210.654L213.469 32.5504V27.884H214.328V33.8996H213.275L210.461 29.2332ZM219.484 27.884V28.7434H217.766V33.8996H216.906V28.7434H215.187V27.884H219.484ZM225.534 27.884C226.107 27.884 226.823 28.0272 227.683 28.3137V29.1731C226.823 28.8866 226.107 28.7434 225.534 28.7434C224.941 28.7434 224.434 28.9539 224.013 29.375C223.595 29.7933 223.386 30.2989 223.386 30.8918C223.386 31.4848 223.595 31.9918 224.013 32.4129C224.434 32.8311 224.941 33.0403 225.534 33.0403C226.107 33.0403 226.823 32.897 227.683 32.6106V33.4699C226.823 33.7564 226.107 33.8996 225.534 33.8996C224.704 33.8996 223.995 33.606 223.407 33.0188C222.82 32.4315 222.526 31.7225 222.526 30.8918C222.526 30.0611 222.82 29.3521 223.407 28.7649C223.995 28.1776 224.704 27.884 225.534 27.884ZM231.98 27.884V28.7434H229.401V30.4621H231.98V31.3215H229.401V33.0403H231.98V33.8996H228.542V27.884H231.98ZM233.698 29.2332V33.8996H232.839V27.884H233.892L236.706 32.5504V27.884H237.566V33.8996H236.513L233.698 29.2332ZM242.722 27.884V28.7434H241.003V33.8996H240.144V28.7434H238.425V27.884H242.722ZM245.73 27.884C246.205 27.884 246.61 28.0516 246.946 28.3867C247.281 28.7219 247.448 29.1272 247.448 29.6028C247.448 30.0783 247.281 30.4836 246.946 30.8188C246.688 31.0766 246.388 31.2356 246.048 31.2957L247.551 33.8996H246.555L245.068 31.3215H244.441V33.8996H243.581V27.884H245.73ZM245.73 28.7434H244.441V30.4621H245.73C245.967 30.4621 246.169 30.3791 246.335 30.2129C246.504 30.0439 246.589 29.8405 246.589 29.6028C246.589 29.365 246.504 29.163 246.335 28.9969C246.169 28.8279 245.967 28.7434 245.73 28.7434ZM251.745 27.884V28.7434H249.167V30.4621H251.745V31.3215H249.167V33.0403H251.745V33.8996H248.308V27.884H251.745Z" fill="#E6E7E9"/>
</svg>
