<svg width="74" height="64" viewBox="0 0 74 64" fill="none" xmlns="http://www.w3.org/2000/svg">
<path fill-rule="evenodd" clip-rule="evenodd" d="M18.0528 41.3619C18.0528 25.9479 30.5468 13.4519 45.9578 13.4519H48.8208C62.6518 13.4519 73.8638 24.6659 73.8638 38.4999C73.8638 52.3339 62.6508 63.5479 48.8208 63.5479H16.4748C15.7308 63.5479 15.0398 63.1629 14.6488 62.5299C14.2578 61.8969 14.2218 61.1059 14.5548 60.4409L18.0518 49.4429L18.0528 41.3619Z" fill="#1DBF73"/>
<path d="M18.0528 41.3619C18.0528 25.9479 30.5468 13.4519 45.9578 13.4519H48.8208C62.6518 13.4519 73.8638 24.6659 73.8638 38.4999C73.8638 52.3339 62.6508 63.5479 48.8208 63.5479H16.4748C15.7308 63.5479 15.0398 63.1629 14.6488 62.5299C14.2578 61.8969 14.2218 61.1059 14.5548 60.4409L18.0518 49.4429L18.0528 41.3619Z" fill="url(#paint0_linear_1_34)"/>
<path fill-rule="evenodd" clip-rule="evenodd" d="M42.633 58.1191H3.39098C2.53998 58.1191 1.75098 57.6791 1.30398 56.9561C0.856979 56.2321 0.815979 55.3301 1.19698 54.5691L7.47798 42.0041V32.7711C7.47798 15.1591 21.754 0.881104 39.362 0.881104H42.633C58.437 0.881104 71.246 13.6941 71.246 29.5001C71.246 45.3061 58.436 58.1191 42.633 58.1191ZM43.177 3.5561H39.598C23.297 3.5561 10.081 16.7741 10.081 33.0781V43.8131C10.081 44.2301 9.98398 44.6411 9.79798 45.0141L4.58398 55.4431H43.177C57.502 55.4431 69.115 43.8281 69.115 29.5001C69.115 15.1711 57.502 3.5561 43.177 3.5561ZM22.998 22.1001H56.998V25.0001H22.998V22.1001ZM41.098 34.0001H22.998V31.1001H41.098V34.0001Z" fill="white"/>
<defs>
<linearGradient id="paint0_linear_1_34" x1="0.9375" y1="0.881104" x2="18.9696" y2="61.8235" gradientUnits="userSpaceOnUse">
<stop stop-color="#1DBF73"/>
<stop offset="1" stop-color="#004AC1"/>
</linearGradient>
</defs>
</svg>
