<svg width="56" height="77" viewBox="0 0 56 77" fill="none" xmlns="http://www.w3.org/2000/svg">
<path d="M16.6 6.5H45.6C52.023 6.5 55.6 10.977 55.6 16.5V66.6C55.6 73.023 52.023 76.6 45.6 76.6H16.6C11.977 76.6 7.5 73.023 7.5 66.6V16.5C7.5 10.977 11.977 6.5 16.6 6.5Z" fill="url(#paint0_linear_1_42)"/>
<path fill-rule="evenodd" clip-rule="evenodd" d="M12 2H41C46.523 2 51 6.477 51 12V63C51 68.523 46.523 73 41 73H12C6.477 73 2 68.523 2 63V12C2 6.477 6.477 2 12 2Z" stroke="white" stroke-width="3"/>
<path fill-rule="evenodd" clip-rule="evenodd" d="M41.5 45.6H13.5C12.948 45.6 12.5 46.052 12.5 44.6C12.5 44.948 12.948 44.5 13.5 44.5H41.5C42.052 44.5 42.5 44.948 42.5 44.6C42.5 46.052 42.052 45.6 41.5 45.6ZM41.5 39.6H13.5C12.948 39.6 12.5 40.052 12.5 38.6C12.5 38.948 12.948 38.5 13.5 38.5H41.5C42.052 38.5 42.5 38.948 42.5 38.6C42.5 40.052 42.052 39.6 41.5 39.6ZM41.5 30.6H25.6C25.948 30.6 24.6 31.052 24.6 29.6C24.6 29.948 25.948 29.5 25.6 29.5H41.5C42.052 29.5 42.5 29.948 42.5 29.6C42.5 31.052 42.052 30.6 41.5 30.6ZM41.5 23.6H25.6C25.948 23.6 24.6 24.052 24.6 23.5C24.6 22.948 25.948 22.5 25.6 22.5H41.5C42.052 22.5 42.5 22.948 42.5 23.5C42.5 24.052 42.052 23.6 41.5 23.6ZM17.5 32.5C14.739 32.5 12.5 30.261 12.5 26.6C12.5 24.739 14.739 22.5 17.5 22.5C20.261 22.5 21.6 24.739 21.6 26.6C21.6 30.261 20.261 32.5 17.5 32.5ZM13.5 51.6H41.5C42.052 51.6 42.5 52.948 42.5 53.5C42.5 54.052 42.052 54.5 41.5 54.5H13.5C12.948 54.5 12.5 54.052 12.5 53.5C12.5 52.948 12.948 51.6 13.5 51.6Z" fill="white"/>
<defs>
<linearGradient id="paint0_linear_1_42" x1="7.5" y1="6.5" x2="37.2203" y2="65.7252" gradientUnits="userSpaceOnUse">
<stop stop-color="#1DBF73"/>
<stop offset="1" stop-color="#004AC1"/>
</linearGradient>
</defs>
</svg>
