<svg width="62" height="74" viewBox="0 0 62 74" fill="none" xmlns="http://www.w3.org/2000/svg">
<path d="M61.2008 61.9173C61.2008 64.9263 60.0298 67.7553 57.9018 69.8823C55.7748 72.0093 52.9458 73.1813 49.9358 73.1813H20.0628C17.0538 73.1813 14.2248 72.0093 12.0978 69.8823C9.9698 67.7553 8.7978 64.9263 8.7978 61.9173V56.5983L8.6448 56.5993C8.5388 56.4063 8.4858 52.5883 8.4928 52.3673L8.4938 52.3053V18.4063C8.4938 15.3883 9.6618 12.5523 11.7808 10.4193C13.9008 8.28633 16.7188 7.11133 19.7178 7.11133H49.4798C52.4788 7.11133 55.2968 8.28633 57.4168 10.4193C59.5358 12.5523 60.7038 15.3883 60.7038 18.4063L60.7018 40.6473L61.2008 61.9173Z" fill="url(#paint0_linear_1_41)"/>
<path fill-rule="evenodd" clip-rule="evenodd" d="M55.8051 20.3988V60.5178C55.8051 63.5268 54.6341 66.3558 52.5061 68.4828C50.3791 70.6098 47.5501 71.7818 44.5401 71.7818H11.9681C8.95813 71.7818 6.12913 70.6098 4.00213 68.4828C1.87413 66.3558 0.703125 63.5268 0.703125 60.5178V12.0628C0.703125 9.0538 1.87413 6.2258 4.00213 4.0988C6.12913 1.9708 8.95813 0.799805 11.9681 0.799805H36.3521C36.5691 0.799805 36.7831 0.858805 36.9711 0.968805C37.0631 1.0238 37.1471 1.0898 37.2211 1.1658V1.3558L54.9921 19.1238L55.1981 19.2428C55.3891 19.3528 55.5461 19.5128 55.6541 19.7068C55.7611 19.8988 55.8141 20.1178 55.8061 20.3378L55.8051 20.3988ZM37.6231 5.1608V18.9788H51.6231L37.6231 5.1608ZM37.4081 21.5198C36.8141 21.5198 36.2551 21.2878 35.8351 20.8678C35.4211 20.4538 35.1841 19.8808 35.1841 19.2948V3.2388H11.9681C9.61013 3.2388 7.39413 4.1568 5.72713 5.8238C4.06013 7.4898 3.14212 9.7058 3.14212 12.0628V60.5188C3.14212 62.8758 4.06013 65.0918 5.72713 66.7588C7.39413 68.4248 9.61113 69.3428 11.9681 69.3428H44.5411C46.8981 69.3428 49.1151 68.4248 50.7821 66.7588C52.4481 65.0908 53.3661 62.8758 53.3661 60.5188V21.5198H37.4081ZM41.7051 44.2008H13.9791C13.5451 44.2008 13.1411 43.9678 12.9241 43.5908C12.7061 43.2148 12.7061 42.7478 12.9231 42.3718C13.1401 41.9948 13.5451 41.7618 13.9791 41.7618H41.7051C42.1401 41.7618 42.5441 41.9948 42.7611 42.3708C42.9791 42.7478 42.9791 43.2148 42.7621 43.5898C42.5441 43.9678 42.1391 44.2008 41.7051 44.2008ZM41.7051 33.1528H13.9791C13.6531 33.1528 13.3471 33.0258 13.1161 32.7958C12.8901 32.5688 12.7591 32.2548 12.7591 31.9328C12.7591 31.6118 12.8901 31.2968 13.1171 31.0698C13.3431 30.8438 13.6581 30.7128 13.9791 30.7128H41.7051C42.1391 30.7128 42.5441 30.9468 42.7611 31.3228C42.9781 31.6998 42.9781 32.1668 42.7611 32.5428C42.5441 32.9188 42.1391 33.1528 41.7051 33.1528ZM23.7241 22.1038H13.9791C13.5451 22.1038 13.1401 21.8708 12.9241 21.4948C12.7061 21.1178 12.7061 20.6508 12.9231 20.2748C13.1401 19.8988 13.5451 19.6648 13.9791 19.6648H23.7241C24.1581 19.6648 24.5631 19.8988 24.7801 20.2748C24.9971 20.6508 24.9971 21.1178 24.7801 21.4948C24.5631 21.8708 24.1581 22.1038 23.7241 22.1038ZM13.9791 52.8098H41.7051C42.1401 52.8098 42.5441 53.0428 42.7611 53.4188C42.9791 53.7958 42.9791 54.2628 42.7621 54.6388C42.5441 55.0158 42.1401 55.2488 41.7051 55.2488H13.9791C13.5451 55.2488 13.1401 55.0158 12.9241 54.6398C12.7061 54.2628 12.7061 53.7958 12.9231 53.4198C13.1401 53.0428 13.5451 52.8098 13.9791 52.8098Z" fill="white"/>
<defs>
<linearGradient id="paint0_linear_1_41" x1="8.49219" y1="7.11133" x2="33.916" y2="66.0152" gradientUnits="userSpaceOnUse">
<stop stop-color="#1DBF73"/>
<stop offset="1" stop-color="#004AC1"/>
</linearGradient>
</defs>
</svg>
