<svg width="56" height="54" viewBox="0 0 56 54" fill="none" xmlns="http://www.w3.org/2000/svg">
<path d="M35.5849 13.798C46.5829 13.798 55.4989 22.713 55.4989 33.711C55.4989 44.709 46.5829 53.625 35.5849 53.625C24.5869 53.625 15.6719 44.709 15.6719 33.711C15.6719 22.713 24.5869 13.798 35.5849 13.798Z" fill="url(#paint0_linear_5_9)"/>
<path fill-rule="evenodd" clip-rule="evenodd" d="M26.6 0.462006C19.668 0.462006 13.02 3.21601 8.11801 8.11801C3.21601 13.02 0.462006 19.668 0.462006 26.6C0.462006 33.533 3.21601 40.181 8.11801 45.082C13.02 49.984 19.667 52.737 26.6 52.737C33.533 52.737 40.18 49.984 45.082 45.082C49.984 40.181 52.738 33.533 52.738 26.6C52.729 19.67 49.973 13.028 45.073 8.12701C40.173 3.22701 33.53 0.469006 26.6 0.462006ZM44.511 11.033L40.789 13.357C40.544 13.512 40.271 13.616 39.986 13.666L37.552 14.07C36.895 14.178 36.224 13.991 35.716 13.561C35.209 13.13 34.917 12.497 34.917 11.832V10.858C34.918 10.472 35.019 10.093 35.208 9.75801L37.553 5.53401C40.195 6.91701 42.555 8.78201 44.51 11.033H44.511ZM16.412 5.16601L19.523 7.39601C20.073 7.78801 20.298 8.49401 20.078 9.13201L19.736 10.173C19.66 10.395 19.534 10.599 19.368 10.766L17.051 13.083C16.317 13.816 15.907 14.812 15.911 15.849V17.154C15.912 17.561 15.751 17.951 15.463 18.239C14.823 18.881 14.426 19.725 14.338 20.626C14.25 21.528 14.476 22.433 14.98 23.188L15.095 23.354C15.522 24.004 16.134 24.511 16.852 24.811C17.57 25.11 18.361 25.187 19.123 25.033L22.089 24.437C22.51 24.355 22.947 24.453 23.293 24.709L26.564 27.17C26.75 27.313 26.902 27.495 27.011 27.702L28.222 30.127C28.519 30.718 28.403 31.434 27.935 31.9L25.367 34.467L25.368 34.468C24.634 35.2 24.223 36.195 24.227 37.233V41.771C24.232 42.284 23.977 42.764 23.55 43.049L22.695 43.613C22.182 43.962 21.507 43.959 20.997 43.606L20.151 43.048C19.726 42.763 19.471 42.283 19.475 41.771V38.754C19.48 37.443 18.824 36.218 17.729 35.496L16.582 34.736H16.581C16.156 34.451 15.902 33.971 15.906 33.458V28.918C15.91 27.88 15.499 26.885 14.766 26.152L12.448 23.836C12.021 23.41 11.5 23.087 10.928 22.896L9.26201 22.336C8.80101 22.184 8.43901 21.823 8.28801 21.362L7.88701 20.171C7.55801 19.187 6.85101 18.374 5.92201 17.912L4.72801 17.311C7.01801 11.977 11.171 7.66001 16.412 5.16601ZM26.6 50.362C21.618 50.361 16.762 48.794 12.719 45.883C8.67601 42.972 5.64901 38.864 4.06801 34.14C2.48601 29.414 2.43001 24.313 3.90601 19.554L4.86201 20.036C5.22801 20.213 5.50601 20.532 5.63201 20.92L6.03601 22.118C6.42101 23.286 7.33801 24.204 8.50701 24.589L10.174 25.148C10.397 25.224 10.599 25.349 10.766 25.514L13.083 27.832C13.371 28.119 13.533 28.509 13.531 28.917V33.454C13.524 34.765 14.179 35.99 15.272 36.712L16.419 37.473C16.847 37.758 17.101 38.24 17.096 38.754V41.772C17.09 43.084 17.746 44.31 18.841 45.032L19.675 45.583C20.313 46.018 21.068 46.252 21.841 46.254C22.614 46.254 23.37 46.023 24.011 45.591L24.853 45.033C25.949 44.311 26.606 43.085 26.6 41.772V37.234C26.599 36.827 26.76 36.436 27.049 36.148L29.615 33.582C30.196 33.001 30.58 32.252 30.712 31.441C30.844 30.629 30.716 29.797 30.348 29.062L29.13 26.625C28.858 26.093 28.47 25.631 27.994 25.269L24.725 22.806C23.836 22.14 22.704 21.885 21.616 22.107L18.664 22.699C18.044 22.828 17.409 22.56 17.067 22.027L16.945 21.852C16.777 21.601 16.689 21.304 16.692 21.002C16.693 20.596 16.854 20.206 17.14 19.917C17.874 19.185 18.285 18.189 18.281 17.152V15.848C18.279 15.441 18.44 15.051 18.728 14.764L21.045 12.446C21.472 12.016 21.795 11.495 21.987 10.921L22.329 9.87901C22.599 9.08701 22.607 8.22801 22.349 7.43101C22.091 6.63501 21.582 5.94401 20.898 5.46101L19.009 4.10501C24.342 2.27801 30.155 2.43401 35.383 4.54201L33.131 8.60401C32.745 9.29301 32.542 10.069 32.54 10.859V11.833C32.539 13.196 33.138 14.491 34.178 15.375C35.218 16.256 36.593 16.636 37.938 16.414L40.395 16.008C40.99 15.905 41.559 15.685 42.069 15.36L45.989 12.913C46.911 14.211 47.7 15.6 48.344 17.056L44.732 19.12C44.387 19.316 43.984 19.388 43.592 19.324L39.346 18.611C38.195 18.425 37.019 18.737 36.111 19.468C35.202 20.2 34.647 21.282 34.583 22.447C34.519 23.611 34.952 24.748 35.775 25.574L37.012 26.811C37.256 27.053 37.424 27.362 37.493 27.699L38.327 31.918C38.492 32.711 38.886 33.437 39.459 34.009L41.871 36.421C42.073 36.624 42.224 36.872 42.309 37.145L43.984 42.744C41.769 45.145 39.081 47.06 36.089 48.371C33.097 49.682 29.866 50.361 26.6 50.362ZM45.803 40.54L44.583 36.456C44.384 35.808 44.03 35.22 43.55 34.742L41.137 32.329C40.893 32.088 40.726 31.779 40.656 31.442L39.822 27.223C39.657 26.43 39.264 25.704 38.691 25.132L37.455 23.897C37.104 23.549 36.919 23.068 36.944 22.574C36.97 22.082 37.205 21.622 37.59 21.312C37.975 21.003 38.474 20.873 38.961 20.953L43.206 21.667C44.138 21.82 45.093 21.649 45.913 21.181L49.202 19.3C50.361 22.856 50.657 26.637 50.066 30.33C49.475 34.024 48.014 37.524 45.803 40.54Z" fill="#494949"/>
<path d="M35.5849 13.798C46.5829 13.798 55.4989 22.713 55.4989 33.711C55.4989 44.709 46.5829 53.625 35.5849 53.625C24.5869 53.625 15.6719 44.709 15.6719 33.711C15.6719 22.713 24.5869 13.798 35.5849 13.798Z" stroke="#494949" stroke-width="0.2"/>
<path fill-rule="evenodd" clip-rule="evenodd" d="M26.6 0.462006C19.668 0.462006 13.02 3.21601 8.11801 8.11801C3.21601 13.02 0.462006 19.668 0.462006 26.6C0.462006 33.533 3.21601 40.181 8.11801 45.082C13.02 49.984 19.667 52.737 26.6 52.737C33.533 52.737 40.18 49.984 45.082 45.082C49.984 40.181 52.738 33.533 52.738 26.6C52.729 19.67 49.973 13.028 45.073 8.12701C40.173 3.22701 33.53 0.469006 26.6 0.462006ZM44.511 11.033L40.789 13.357C40.544 13.512 40.271 13.616 39.986 13.666L37.552 14.07C36.895 14.178 36.224 13.991 35.716 13.561C35.209 13.13 34.917 12.497 34.917 11.832V10.858C34.918 10.472 35.019 10.093 35.208 9.75801L37.553 5.53401C40.195 6.91701 42.555 8.78201 44.51 11.033H44.511ZM16.412 5.16601L19.523 7.39601C20.073 7.78801 20.298 8.49401 20.078 9.13201L19.736 10.173C19.66 10.395 19.534 10.599 19.368 10.766L17.051 13.083C16.317 13.816 15.907 14.812 15.911 15.849V17.154C15.912 17.561 15.751 17.951 15.463 18.239C14.823 18.881 14.426 19.725 14.338 20.626C14.25 21.528 14.476 22.433 14.98 23.188L15.095 23.354C15.522 24.004 16.134 24.511 16.852 24.811C17.57 25.11 18.361 25.187 19.123 25.033L22.089 24.437C22.51 24.355 22.947 24.453 23.293 24.709L26.564 27.17C26.75 27.313 26.902 27.495 27.011 27.702L28.222 30.127C28.519 30.718 28.403 31.434 27.935 31.9L25.367 34.467L25.368 34.468C24.634 35.2 24.223 36.195 24.227 37.233V41.771C24.232 42.284 23.977 42.764 23.55 43.049L22.695 43.613C22.182 43.962 21.507 43.959 20.997 43.606L20.151 43.048C19.726 42.763 19.471 42.283 19.475 41.771V38.754C19.48 37.443 18.824 36.218 17.729 35.496L16.582 34.736H16.581C16.156 34.451 15.902 33.971 15.906 33.458V28.918C15.91 27.88 15.499 26.885 14.766 26.152L12.448 23.836C12.021 23.41 11.5 23.087 10.928 22.896L9.26201 22.336C8.80101 22.184 8.43901 21.823 8.28801 21.362L7.88701 20.171C7.55801 19.187 6.85101 18.374 5.92201 17.912L4.72801 17.311C7.01801 11.977 11.171 7.66001 16.412 5.16601ZM26.6 50.362C21.618 50.361 16.762 48.794 12.719 45.883C8.67601 42.972 5.64901 38.864 4.06801 34.14C2.48601 29.414 2.43001 24.313 3.90601 19.554L4.86201 20.036C5.22801 20.213 5.50601 20.532 5.63201 20.92L6.03601 22.118C6.42101 23.286 7.33801 24.204 8.50701 24.589L10.174 25.148C10.397 25.224 10.599 25.349 10.766 25.514L13.083 27.832C13.371 28.119 13.533 28.509 13.531 28.917V33.454C13.524 34.765 14.179 35.99 15.272 36.712L16.419 37.473C16.847 37.758 17.101 38.24 17.096 38.754V41.772C17.09 43.084 17.746 44.31 18.841 45.032L19.675 45.583C20.313 46.018 21.068 46.252 21.841 46.254C22.614 46.254 23.37 46.023 24.011 45.591L24.853 45.033C25.949 44.311 26.606 43.085 26.6 41.772V37.234C26.599 36.827 26.76 36.436 27.049 36.148L29.615 33.582C30.196 33.001 30.58 32.252 30.712 31.441C30.844 30.629 30.716 29.797 30.348 29.062L29.13 26.625C28.858 26.093 28.47 25.631 27.994 25.269L24.725 22.806C23.836 22.14 22.704 21.885 21.616 22.107L18.664 22.699C18.044 22.828 17.409 22.56 17.067 22.027L16.945 21.852C16.777 21.601 16.689 21.304 16.692 21.002C16.693 20.596 16.854 20.206 17.14 19.917C17.874 19.185 18.285 18.189 18.281 17.152V15.848C18.279 15.441 18.44 15.051 18.728 14.764L21.045 12.446C21.472 12.016 21.795 11.495 21.987 10.921L22.329 9.87901C22.599 9.08701 22.607 8.22801 22.349 7.43101C22.091 6.63501 21.582 5.94401 20.898 5.46101L19.009 4.10501C24.342 2.27801 30.155 2.43401 35.383 4.54201L33.131 8.60401C32.745 9.29301 32.542 10.069 32.54 10.859V11.833C32.539 13.196 33.138 14.491 34.178 15.375C35.218 16.256 36.593 16.636 37.938 16.414L40.395 16.008C40.99 15.905 41.559 15.685 42.069 15.36L45.989 12.913C46.911 14.211 47.7 15.6 48.344 17.056L44.732 19.12C44.387 19.316 43.984 19.388 43.592 19.324L39.346 18.611C38.195 18.425 37.019 18.737 36.111 19.468C35.202 20.2 34.647 21.282 34.583 22.447C34.519 23.611 34.952 24.748 35.775 25.574L37.012 26.811C37.256 27.053 37.424 27.362 37.493 27.699L38.327 31.918C38.492 32.711 38.886 33.437 39.459 34.009L41.871 36.421C42.073 36.624 42.224 36.872 42.309 37.145L43.984 42.744C41.769 45.145 39.081 47.06 36.089 48.371C33.097 49.682 29.866 50.361 26.6 50.362ZM45.803 40.54L44.583 36.456C44.384 35.808 44.03 35.22 43.55 34.742L41.137 32.329C40.893 32.088 40.726 31.779 40.656 31.442L39.822 27.223C39.657 26.43 39.264 25.704 38.691 25.132L37.455 23.897C37.104 23.549 36.919 23.068 36.944 22.574C36.97 22.082 37.205 21.622 37.59 21.312C37.975 21.003 38.474 20.873 38.961 20.953L43.206 21.667C44.138 21.82 45.093 21.649 45.913 21.181L49.202 19.3C50.361 22.856 50.657 26.637 50.066 30.33C49.475 34.024 48.014 37.524 45.803 40.54Z" stroke="#494949" stroke-width="0.2"/>
<defs>
<linearGradient id="paint0_linear_5_9" x1="0.462006" y1="0.462006" x2="17.3004" y2="51.0879" gradientUnits="userSpaceOnUse">
<stop stop-color="#1DBF73"/>
<stop offset="1" stop-color="#009FF7"/>
</linearGradient>
</defs>
</svg>
