<svg width="87" height="66" viewBox="0 0 87 66" fill="none" xmlns="http://www.w3.org/2000/svg">
<path d="M66.8417 30.061C62.4527 30.061 58.8937 26.505 58.8937 22.12C58.8937 17.733 62.4527 14.178 66.8417 14.178C71.2317 14.178 74.7897 17.733 74.7897 22.12C74.7897 26.505 71.2317 30.061 66.8417 30.061ZM13.0547 56.616C13.0547 42.849 24.2247 31.691 38.0007 31.691H37.1017C51.7787 31.691 62.9487 42.849 62.9477 56.616H13.0547Z" fill="url(#paint0_linear_1_38)"/>
<path fill-rule="evenodd" clip-rule="evenodd" d="M49.5451 43.614C53.3121 48.132 55.5791 53.941 55.5791 60.281H3.41406C3.41406 45.888 15.0931 34.222 29.4961 34.222H29.4971C36.4631 34.222 42.7871 36.956 47.4651 41.402C48.5531 33.051 55.6831 26.597 64.3371 26.597C73.7441 26.597 81.3701 34.215 81.3691 43.614H49.5451ZM64.3371 22.56C59.9481 22.56 56.3891 19.005 56.3891 14.619C56.3891 10.233 59.9481 6.67802 64.3371 6.67802C68.7271 6.67802 72.2851 10.233 72.2851 14.619C72.2851 19.005 68.7271 22.56 64.3371 22.56ZM29.4961 28.041C22.7751 28.041 17.3241 22.595 17.3241 15.879C17.3241 9.16202 22.7751 3.71802 29.4961 3.71802C36.2191 3.71802 41.6681 9.16202 41.6681 15.879C41.6681 22.595 36.2191 28.041 29.4961 28.041Z" stroke="white" stroke-width="3"/>
<defs>
<linearGradient id="paint0_linear_1_38" x1="13.0547" y1="14.178" x2="23.1149" y2="56.6801" gradientUnits="userSpaceOnUse">
<stop stop-color="#1DBF73"/>
<stop offset="1" stop-color="#004AC1"/>
</linearGradient>
</defs>
</svg>
