<svg width="54" height="58" viewBox="0 0 54 58" fill="none" xmlns="http://www.w3.org/2000/svg">
<path d="M33.5 6.5C44.546 6.5 53.5 15.454 53.5 26.5C53.5 37.545 44.546 46.5 33.5 46.5C22.454 46.5 13.5 37.545 13.5 26.5C13.5 15.454 22.454 6.5 33.5 6.5Z" fill="url(#paint0_linear_1_36)"/>
<g clip-path="url(#clip0_1_36)">
<path fill-rule="evenodd" clip-rule="evenodd" d="M52.3111 57.162C52.0021 57.471 51.5681 57.656 51.1501 57.656C50.7481 57.656 50.4161 57.577 50.0171 57.188L38.5841 43.838L37.7781 44.389C33.8401 47.084 29.0431 48.568 24.2711 48.568C17.8791 48.568 11.8381 46.047 7.26106 41.469C2.68406 36.891 0.164062 30.849 0.164062 24.456C0.164062 11.161 10.9781 0.343994 24.2711 0.343994C37.5631 0.343994 48.3781 11.207 48.3781 24.558C48.3781 30.648 46.1001 36.447 41.9651 40.887L41.3091 41.59L52.2771 54.704L52.3111 54.738C52.6461 55.074 52.8301 55.504 52.8301 55.95C52.8301 56.396 52.6461 56.826 52.3111 57.162ZM45.0691 24.456C45.0691 18.956 42.9081 13.765 38.9841 9.84099C35.0611 5.91699 29.8711 3.75599 24.3721 3.75599C18.8731 3.75599 13.6841 5.91699 9.76006 9.84099C5.83706 13.765 3.67606 18.956 3.67606 24.456C3.67606 29.956 5.83706 35.147 9.76006 39.071C13.6841 42.995 18.8731 45.157 24.3721 45.157C29.9101 45.157 35.1141 42.994 39.0241 39.069C42.9221 35.156 45.0691 29.966 45.0691 24.456ZM25.8801 10.983L23.8041 11.638C20.4351 12.701 17.6831 15.015 16.0561 18.155C14.4271 21.294 14.1181 24.883 15.1831 28.262L15.8401 30.345C16.0571 31.033 15.8901 31.792 15.4041 32.324C14.9181 32.856 14.1791 33.089 13.4751 32.932C12.7721 32.776 12.2001 32.25 11.9831 31.561L11.3261 29.478C9.93506 25.067 10.3401 20.379 12.4661 16.279C14.5921 12.179 18.1851 9.15699 22.5841 7.76999L24.6601 7.11499C25.3471 6.89799 26.1041 7.06699 26.6351 7.55499C26.8961 7.79499 27.0911 8.10199 27.1981 8.43999C27.3051 8.77999 27.3211 9.14199 27.2451 9.48899C27.0901 10.195 26.5671 10.767 25.8801 10.983Z" fill="white"/>
</g>
<defs>
<linearGradient id="paint0_linear_1_36" x1="13.5" y1="6.5" x2="26.5228" y2="44.3208" gradientUnits="userSpaceOnUse">
<stop stop-color="#1DBF73"/>
<stop offset="1" stop-color="#004AC1"/>
</linearGradient>
<clipPath id="clip0_1_36">
<rect width="53" height="58" fill="white"/>
</clipPath>
</defs>
</svg>
