<svg width="67" height="64" viewBox="0 0 67 64" fill="none" xmlns="http://www.w3.org/2000/svg">
<rect x="9" y="5" width="47" height="27" rx="10" fill="#21B85E" fill-opacity="0.21"/>
<path d="M8 26.6667C8 16.61 8 11.5817 11.1242 8.45754C14.2484 5.33334 19.2767 5.33334 29.3333 5.33334H34.6667C44.7233 5.33334 49.7516 5.33334 52.8758 8.45754C56 11.5817 56 16.61 56 26.6667V37.3333C56 47.39 56 52.4183 52.8758 55.5425C49.7516 58.6667 44.7233 58.6667 34.6667 58.6667H29.3333C19.2767 58.6667 14.2484 58.6667 11.1242 55.5425C8 52.4183 8 47.39 8 37.3333V26.6667Z" stroke="#009FF7" stroke-width="3"/>
<path d="M21.3333 26.6667H42.6667" stroke="#21B85E" stroke-width="3" stroke-linecap="round"/>
<path d="M21.3333 37.3333H34.6667" stroke="#21B85E" stroke-width="3" stroke-linecap="round"/>
</svg>
