<svg width="76" height="76" viewBox="0 0 76 76" fill="none" xmlns="http://www.w3.org/2000/svg">
<rect opacity="0.6" x="8" y="6" width="59" height="35" rx="17.5" fill="#FFBBBB"/>
<path d="M69.6667 37.9999C69.6667 52.9277 69.6667 60.3916 65.0292 65.0291C60.3917 69.6666 52.9278 69.6666 38 69.6666C23.0722 69.6666 15.6083 69.6666 10.9708 65.0291C6.33333 60.3916 6.33333 52.9277 6.33333 37.9999C6.33333 23.0721 6.33333 15.6082 10.9708 10.9707C15.6083 6.33325 23.0722 6.33325 38 6.33325C52.9278 6.33325 60.3917 6.33325 65.0292 10.9707C68.1127 14.0542 69.1459 18.3873 69.4922 25.3333" stroke="#E22526" stroke-width="4" stroke-linecap="round"/>
<path fill-rule="evenodd" clip-rule="evenodd" d="M42.3358 27C42.3358 26.1716 43.0074 25.5 43.8358 25.5H55.0001C55.8285 25.5 56.5001 26.1716 56.5001 27V38.0917C56.5001 38.9201 55.8285 39.5917 55.0001 39.5917C54.1716 39.5917 53.5001 38.9201 53.5001 38.0917V30.6057L41.2284 42.8026C40.2905 43.7349 39.4821 44.5385 38.7479 45.0954C37.9609 45.6924 37.0865 46.1441 36.0101 46.144C34.9337 46.1438 34.0594 45.692 33.2726 45.0948C32.5385 44.5377 31.7303 43.7339 30.7926 42.8014L30.2441 42.256C29.2158 41.2335 28.5491 40.575 27.994 40.1537C27.4735 39.7587 27.2302 39.7147 27.0691 39.7147C26.9079 39.7148 26.6646 39.759 26.1445 40.1544C25.5896 40.5761 24.9234 41.2351 23.8958 42.2583L16.0585 50.0629C15.4715 50.6474 14.5218 50.6454 13.9372 50.0584C13.3526 49.4714 13.3546 48.5217 13.9416 47.9371L21.8487 40.0631C22.7866 39.1291 23.5949 38.324 24.3291 37.766C25.1161 37.1678 25.9908 36.7151 27.068 36.7147C28.1451 36.7143 29.0201 37.1664 29.8076 37.764C30.5422 38.3215 31.3511 39.1259 32.2896 40.0593L32.8381 40.6047C33.8656 41.6263 34.5316 42.2842 35.0863 42.7051C35.6062 43.0998 35.8494 43.1439 36.0105 43.144C36.1715 43.144 36.4147 43.0999 36.9347 42.7054C37.4895 42.2845 38.1557 41.6268 39.1834 40.6054L51.363 28.5H43.8358C43.0074 28.5 42.3358 27.8284 42.3358 27Z" fill="#E22526"/>
</svg>
