<svg width="76" height="76" viewBox="0 0 76 76" fill="none" xmlns="http://www.w3.org/2000/svg">
<path d="M22.1667 57V28.5" stroke="#21B85E" stroke-width="5" stroke-linecap="round"/>
<path d="M38 57V19" stroke="#21B85E" stroke-width="5" stroke-linecap="round"/>
<path d="M53.8333 57.0001V41.1667" stroke="#21B85E" stroke-width="5" stroke-linecap="round"/>
<path d="M69.6667 37.9999C69.6667 52.9277 69.6667 60.3916 65.0292 65.0291C60.3917 69.6666 52.9278 69.6666 38 69.6666C23.0722 69.6666 15.6083 69.6666 10.9708 65.0291C6.33333 60.3916 6.33333 52.9277 6.33333 37.9999C6.33333 23.0721 6.33333 15.6082 10.9708 10.9707C15.6083 6.33325 23.0722 6.33325 38 6.33325C52.9278 6.33325 60.3917 6.33325 65.0292 10.9707C68.1127 14.0542 69.1459 18.3873 69.4922 25.3333" stroke="#21B85E" stroke-width="4" stroke-linecap="round"/>
</svg>
