<svg width="64" height="64" viewBox="0 0 64 64" fill="none" xmlns="http://www.w3.org/2000/svg">
<circle cx="45" cy="16" r="11" fill="#21B85E" fill-opacity="0.24"/>
<path d="M45.3333 32C52.6971 32 58.6667 26.0305 58.6667 18.6667C58.6667 11.3029 52.6971 5.33333 45.3333 5.33333C37.9695 5.33333 32 11.3029 32 18.6667C32 20.7996 32.5008 22.8155 33.3913 24.6033C33.6279 25.0784 33.7067 25.6214 33.5695 26.1341L32.7754 29.1022C32.4306 30.3906 33.6094 31.5694 34.8978 31.2246L37.8659 30.4305C38.3786 30.2933 38.9216 30.3721 39.3967 30.6087C41.1845 31.4992 43.2004 32 45.3333 32Z" stroke="#21B85E" stroke-width="3"/>
<path d="M21.4336 19.5098L23.1643 22.6109C24.7261 25.4096 24.0992 29.0809 21.6392 31.5408C21.6392 31.5408 21.6392 31.5408 21.6392 31.5408C21.6391 31.5409 18.6555 34.5248 24.0654 39.9346C29.4745 45.3438 32.4584 42.3616 32.4592 42.3608C32.4592 42.3608 32.4592 42.3608 32.4592 42.3607C34.9192 39.9008 38.5905 39.2739 41.3891 40.8357L44.4902 42.5664C48.7162 44.9249 49.2152 50.8513 45.5007 54.5658C43.2687 56.7979 40.5344 58.5346 37.5118 58.6492C32.4234 58.8421 23.7821 57.5543 15.1139 48.8861C6.44567 40.2179 5.15791 31.5766 5.35081 26.4882C5.46539 23.4656 7.20214 20.7313 9.43415 18.4993C13.1487 14.7848 19.0751 15.2838 21.4336 19.5098Z" stroke="#009FF7" stroke-width="3" stroke-linecap="round"/>
</svg>
