<svg width="76" height="76" viewBox="0 0 76 76" fill="none" xmlns="http://www.w3.org/2000/svg">
<path d="M69.6666 37.9999C69.6666 52.9277 69.6666 60.3916 65.0292 65.0291C60.3917 69.6666 52.9278 69.6666 38 69.6666C23.0722 69.6666 15.6083 69.6666 10.9708 65.0291C6.33331 60.3916 6.33331 52.9277 6.33331 37.9999C6.33331 23.0721 6.33331 15.6082 10.9708 10.9707C15.6083 6.33325 23.0722 6.33325 38 6.33325C52.9278 6.33325 60.3917 6.33325 65.0292 10.9707C68.1127 14.0542 69.1459 18.3873 69.4922 25.3333" stroke="#1A3A96" stroke-width="4" stroke-linecap="round"/>
<path fill-rule="evenodd" clip-rule="evenodd" d="M38 15.8276C37.8692 16.0541 37.7238 16.3148 37.5524 16.6223L37.3312 17.0191C37.3155 17.0471 37.2988 17.0777 37.2809 17.1105C37.1042 17.4336 36.8116 17.9687 36.3237 18.3391C35.8256 18.7172 35.2264 18.8473 34.8761 18.9234C34.841 18.931 34.8084 18.9381 34.7786 18.9448L34.3491 19.042C33.955 19.1312 33.6339 19.204 33.3594 19.2729C33.5379 19.4928 33.7699 19.7657 34.0716 20.1185L34.3644 20.4609C34.3852 20.4852 34.4078 20.5112 34.4318 20.5389C34.6747 20.8186 35.0668 21.2703 35.2481 21.8534C35.4273 22.4296 35.3655 23.023 35.3265 23.3974C35.3226 23.4347 35.3189 23.4699 35.3158 23.5026L35.2715 23.9595C35.2304 24.3831 35.1985 24.7212 35.1773 24.9961C35.4117 24.8928 35.6785 24.7701 35.9953 24.6242L36.3975 24.439C36.4252 24.4263 36.4555 24.412 36.4883 24.3965C36.8112 24.2442 37.373 23.9793 38 23.9793C38.627 23.9793 39.1888 24.2442 39.5117 24.3965C39.5445 24.412 39.5748 24.4263 39.6025 24.439L40.0047 24.6242C40.3216 24.7701 40.5883 24.8928 40.8227 24.9961C40.8015 24.7212 40.7696 24.3831 40.7285 23.9595L40.6843 23.5026C40.6811 23.4699 40.6774 23.4347 40.6735 23.3974C40.6345 23.023 40.5727 22.4296 40.7519 21.8534C40.9332 21.2703 41.3253 20.8186 41.5682 20.5389C41.5922 20.5112 41.6148 20.4852 41.6356 20.4609L41.9284 20.1185C42.2301 19.7657 42.4621 19.4928 42.6406 19.2729C42.3661 19.204 42.0451 19.1312 41.6509 19.042L41.2214 18.9448C41.1916 18.9381 41.159 18.931 41.1239 18.9234C40.7736 18.8473 40.1744 18.7172 39.6763 18.3391C39.1884 17.9687 38.8958 17.4336 38.7191 17.1105C38.7012 17.0777 38.6845 17.0471 38.6689 17.0191L38.4477 16.6223C38.2763 16.3148 38.1308 16.0541 38 15.8276ZM35.7804 13.0492C36.1678 12.5433 36.8712 11.8125 38 11.8125C39.1288 11.8125 39.8323 12.5433 40.2196 13.0492C40.5894 13.532 40.9617 14.2003 41.3435 14.8855C41.3608 14.9166 41.3782 14.9478 41.3956 14.979L41.6168 15.3758C41.6681 15.4678 41.7085 15.5402 41.7438 15.6022C41.8053 15.6166 41.8768 15.6328 41.9662 15.653L42.3957 15.7502C42.4309 15.7582 42.4661 15.7661 42.5013 15.7741C43.2388 15.9407 43.9719 16.1064 44.5345 16.3281C45.1559 16.573 45.998 17.0498 46.3226 18.0936C46.6415 19.119 46.2391 19.9876 45.8877 20.5458C45.5625 21.0624 45.0682 21.6402 44.5621 22.2317C44.5392 22.2584 44.5163 22.2852 44.4934 22.3119L44.2006 22.6544C44.123 22.7451 44.0645 22.8135 44.0153 22.8727C44.022 22.9545 44.0312 23.0497 44.0435 23.1771L44.0878 23.634C44.0912 23.6688 44.0946 23.7036 44.0979 23.7384C44.1748 24.5302 44.2491 25.2954 44.2219 25.9076C44.1933 26.5494 44.0393 27.5209 43.1681 28.1822C42.2695 28.8644 41.277 28.7158 40.6476 28.5354C40.0677 28.3693 39.3824 28.0535 38.6923 27.7355C38.6593 27.7203 38.6262 27.7051 38.5932 27.6899L38.191 27.5047C38.1157 27.47 38.0539 27.4416 38 27.4172C37.9461 27.4416 37.8843 27.47 37.809 27.5047L37.4069 27.6899C37.3738 27.7051 37.3408 27.7203 37.3077 27.7355C36.6176 28.0535 35.9324 28.3693 35.3524 28.5354C34.7231 28.7158 33.7306 28.8644 32.8319 28.1822C31.9608 27.5209 31.8067 26.5494 31.7781 25.9076C31.7509 25.2954 31.8252 24.5302 31.9021 23.7384C31.9055 23.7036 31.9088 23.6688 31.9122 23.634L31.9565 23.1771C31.9688 23.0497 31.978 22.9545 31.9847 22.8727C31.9355 22.8135 31.877 22.7451 31.7994 22.6544L31.5066 22.3119C31.4837 22.2852 31.4608 22.2584 31.4379 22.2317C30.9318 21.6402 30.4375 21.0624 30.1123 20.5458C29.7609 19.9876 29.3585 19.119 29.6774 18.0936C30.002 17.0498 30.8442 16.573 31.4655 16.3281C32.0282 16.1064 32.7612 15.9408 33.4988 15.7741C33.5339 15.7661 33.5691 15.7582 33.6043 15.7502L34.0338 15.653C34.1232 15.6328 34.1947 15.6166 34.2562 15.6022C34.2915 15.5402 34.3319 15.4678 34.3832 15.3758L34.6044 14.979C34.6218 14.9478 34.6392 14.9166 34.6566 14.8855C35.0383 14.2003 35.4106 13.532 35.7804 13.0492ZM35.6389 29.8125H40.3611C41.857 29.8124 43.146 29.8123 44.1782 29.9511C45.2843 30.0998 46.3447 30.4352 47.2047 31.2953C48.0648 32.1553 48.4002 33.2157 48.5489 34.3219C48.6877 35.354 48.6876 36.643 48.6875 38.1389L48.6875 43.6892C49.0557 43.5776 49.436 43.503 49.8219 43.4511C50.854 43.3123 52.143 43.3124 53.6389 43.3125H53.8611C55.357 43.3124 56.646 43.3123 57.6782 43.4511C58.7843 43.5998 59.8447 43.9352 60.7047 44.7953C61.5648 45.6553 61.9002 46.7157 62.0489 47.8219C62.1877 48.854 62.1876 50.143 62.1875 51.6389V58.5C62.1875 59.432 61.432 60.1875 60.5 60.1875C59.568 60.1875 58.8125 59.432 58.8125 58.5V51.75C58.8125 50.1113 58.8089 49.052 58.704 48.2716C58.6056 47.5396 58.4467 47.3102 58.3183 47.1818C58.1898 47.0533 57.9604 46.8944 57.2284 46.796C56.448 46.6911 55.3887 46.6875 53.75 46.6875C52.1113 46.6875 51.052 46.6911 50.2716 46.796C49.5396 46.8944 49.3102 47.0533 49.1818 47.1818C49.0533 47.3102 48.8944 47.5396 48.796 48.2716C48.6911 49.052 48.6875 50.1113 48.6875 51.75V58.5C48.6875 59.432 47.932 60.1875 47 60.1875C46.068 60.1875 45.3125 59.432 45.3125 58.5L45.3125 51.6389C45.3125 51.5653 45.3125 51.4921 45.3125 51.4194V38.25C45.3125 36.6113 45.3089 35.552 45.204 34.7716C45.1056 34.0396 44.9467 33.8102 44.8183 33.6818C44.6898 33.5533 44.4604 33.3944 43.7284 33.296C42.948 33.1911 41.8887 33.1875 40.25 33.1875H35.75C34.1113 33.1875 33.052 33.1911 32.2716 33.296C31.5396 33.3944 31.3102 33.5533 31.1818 33.6818C31.0533 33.8102 30.8944 34.0396 30.796 34.7716C30.6911 35.552 30.6875 36.6113 30.6875 38.25V58.1695C30.6875 58.2421 30.6875 58.3153 30.6875 58.3889L30.6875 58.5C30.6875 59.432 29.932 60.1875 29 60.1875C28.068 60.1875 27.3125 59.432 27.3125 58.5C27.3125 56.8613 27.3089 55.802 27.204 55.0216C27.1056 54.2896 26.9467 54.0602 26.8183 53.9318C26.6898 53.8033 26.4604 53.6444 25.7284 53.546C24.948 53.4411 23.8887 53.4375 22.25 53.4375C20.6113 53.4375 19.5521 53.4411 18.7716 53.546C18.0396 53.6444 17.8102 53.8033 17.6818 53.9318C17.5533 54.0602 17.3944 54.2896 17.296 55.0216C17.1911 55.802 17.1875 56.8613 17.1875 58.5C17.1875 59.432 16.432 60.1875 15.5 60.1875C14.568 60.1875 13.8125 59.432 13.8125 58.5L13.8125 58.3889C13.8124 56.893 13.8123 55.604 13.9511 54.5718C14.0998 53.4657 14.4352 52.4053 15.2953 51.5453C16.1553 50.6852 17.2157 50.3498 18.3219 50.2011C19.354 50.0623 20.643 50.0624 22.1389 50.0625H22.3611C23.857 50.0624 25.146 50.0623 26.1782 50.2011C26.564 50.253 26.9443 50.3276 27.3125 50.4392L27.3125 38.1389C27.3124 36.643 27.3123 35.354 27.4511 34.3219C27.5998 33.2157 27.9352 32.1553 28.7953 31.2953C29.6553 30.4352 30.7157 30.0998 31.8219 29.9511C32.854 29.8123 34.143 29.8124 35.6389 29.8125Z" fill="#1A3A96"/>
</svg>
