<svg width="64" height="64" viewBox="0 0 64 64" fill="none" xmlns="http://www.w3.org/2000/svg">
<rect x="7" y="16" width="50" height="26" rx="10" fill="#21B85E" fill-opacity="0.21"/>
<path d="M5.33333 37.3333C5.33333 27.2767 5.33333 22.2484 8.45753 19.1242C11.5817 16 16.61 16 26.6667 16H37.3333C47.39 16 52.4183 16 55.5425 19.1242C58.6667 22.2484 58.6667 27.2767 58.6667 37.3333C58.6667 47.39 58.6667 52.4183 55.5425 55.5425C52.4183 58.6667 47.39 58.6667 37.3333 58.6667H26.6667C16.61 58.6667 11.5817 58.6667 8.45753 55.5425C5.33333 52.4183 5.33333 47.39 5.33333 37.3333Z" stroke="#009FF7" stroke-width="3"/>
<path d="M42.6667 16C42.6667 10.9717 42.6667 8.45753 41.1046 6.89543C39.5425 5.33334 37.0283 5.33334 32 5.33334C26.9717 5.33334 24.4575 5.33334 22.8954 6.89543C21.3333 8.45753 21.3333 10.9717 21.3333 16" stroke="#009FF7" stroke-width="3"/>
<path d="M45.3333 24C45.3333 25.4728 44.1394 26.6667 42.6667 26.6667C41.1939 26.6667 40 25.4728 40 24C40 22.5272 41.1939 21.3333 42.6667 21.3333C44.1394 21.3333 45.3333 22.5272 45.3333 24Z" fill="#21B85E"/>
<path d="M24 24C24 25.4728 22.8061 26.6667 21.3333 26.6667C19.8606 26.6667 18.6667 25.4728 18.6667 24C18.6667 22.5272 19.8606 21.3333 21.3333 21.3333C22.8061 21.3333 24 22.5272 24 24Z" fill="#21B85E"/>
</svg>
