<svg width="80" height="80" viewBox="0 0 80 80" fill="none" xmlns="http://www.w3.org/2000/svg">
<rect x="8.75" y="20" width="62.5" height="32.5" rx="10" fill="#CAEED9"/>
<path d="M6.66667 46.6667C6.66667 34.0959 6.66667 27.8105 10.5719 23.9052C14.4772 20 20.7625 20 33.3333 20H46.6667C59.2375 20 65.5228 20 69.4281 23.9052C73.3333 27.8105 73.3333 34.0959 73.3333 46.6667C73.3333 59.2375 73.3333 65.5229 69.4281 69.4281C65.5228 73.3333 59.2375 73.3333 46.6667 73.3333H33.3333C20.7625 73.3333 14.4772 73.3333 10.5719 69.4281C6.66667 65.5229 6.66667 59.2375 6.66667 46.6667Z" stroke="#1C274C" stroke-width="3"/>
<path d="M53.3333 20.0001C53.3333 13.7147 53.3333 10.572 51.3807 8.61937C49.4281 6.66675 46.2854 6.66675 40 6.66675C33.7146 6.66675 30.5719 6.66675 28.6193 8.61937C26.6667 10.572 26.6667 13.7147 26.6667 20.0001" stroke="#1C274C" stroke-width="3"/>
<path d="M56.6667 30.0001C56.6667 31.841 55.1743 33.3334 53.3333 33.3334C51.4924 33.3334 50 31.841 50 30.0001C50 28.1591 51.4924 26.6667 53.3333 26.6667C55.1743 26.6667 56.6667 28.1591 56.6667 30.0001Z" fill="#21B85E"/>
<path d="M30 30.0001C30 31.841 28.5076 33.3334 26.6667 33.3334C24.8257 33.3334 23.3333 31.841 23.3333 30.0001C23.3333 28.1591 24.8257 26.6667 26.6667 26.6667C28.5076 26.6667 30 28.1591 30 30.0001Z" fill="#21B85E"/>
</svg>
