<svg width="64" height="59" viewBox="0 0 64 59" fill="none" xmlns="http://www.w3.org/2000/svg">
<path fill-rule="evenodd" clip-rule="evenodd" d="M48.3237 29.079H57.4587C58.9937 29.079 60.4377 29.679 61.5267 30.768C62.6147 31.857 63.2147 33.302 63.2137 34.837V52.559C63.2137 55.733 60.6317 58.316 57.4587 58.316H18.6037C15.4297 58.316 12.8477 55.733 12.8477 52.559V34.837C12.8477 31.662 15.4297 29.079 18.6037 29.079H27.7387M29.9077 29.08H46.1547Z" fill="white"/>
<path d="M48.3237 29.079H57.4587C58.9937 29.079 60.4377 29.679 61.5267 30.768C62.6147 31.857 63.2147 33.302 63.2137 34.837V52.559C63.2137 55.733 60.6317 58.316 57.4587 58.316H18.6037C15.4297 58.316 12.8477 55.733 12.8477 52.559V34.837C12.8477 31.662 15.4297 29.079 18.6037 29.079H27.7387M29.9077 29.08H46.1547Z" fill="url(#paint0_linear_1_40)"/>
<g clip-path="url(#clip0_1_40)">
<path fill-rule="evenodd" clip-rule="evenodd" d="M7.155 55.625C3.431 55.625 0.402 52.595 0.402 48.87V17.523C0.402 13.799 3.431 10.77 7.155 10.77H17.871V7.612C17.871 3.888 20.9 0.858002 24.623 0.858002H36.44C40.163 0.858002 43.192 3.888 43.192 7.612V10.77H53.908C55.709 10.77 57.403 11.473 58.68 12.75C59.957 14.028 60.66 15.722 60.66 17.522V48.87C60.66 52.595 57.631 55.625 53.908 55.625H7.155ZM53.908 53.08C56.229 53.08 58.116 51.192 58.116 48.871V28.144H2.947V48.871C2.947 51.192 4.835 53.08 7.155 53.08H52.44H53.908ZM7.155 13.314C4.835 13.314 2.947 15.202 2.947 17.523V25.598H58.117L58.116 17.523C58.116 15.202 56.229 13.314 53.908 13.314H7.155ZM24.623 3.404C22.303 3.404 20.415 5.292 20.415 7.612V10.771H40.648V7.612C40.648 5.292 38.76 3.404 36.44 3.404H24.623Z" fill="white"/>
</g>
<defs>
<linearGradient id="paint0_linear_1_40" x1="12.8477" y1="29.079" x2="18.7908" y2="58.8128" gradientUnits="userSpaceOnUse">
<stop stop-color="#1DBF73"/>
<stop offset="1" stop-color="#009FF7"/>
</linearGradient>
<clipPath id="clip0_1_40">
<rect width="61" height="56" fill="white"/>
</clipPath>
</defs>
</svg>
