<svg width="64" height="69" viewBox="0 0 64 69" fill="none" xmlns="http://www.w3.org/2000/svg">
<path d="M60.244 36.5626C58.3833 51.4958 44.7692 62.0932 29.8359 60.2325C14.9027 58.3718 4.30535 44.7576 6.16606 29.8244C8.02676 14.8912 21.6409 4.2938 36.5741 6.1545C51.5074 8.0152 62.1047 21.6294 60.244 36.5626ZM11.8256 30.5296C10.3543 42.3371 18.7336 53.1017 30.5411 54.5729C42.3487 56.0442 53.1133 47.665 54.5845 35.8574C56.0557 24.0499 47.6765 13.2853 35.869 11.814C24.0614 10.3428 13.2968 18.722 11.8256 30.5296Z" fill="#009FF7"/>
<path d="M26.3875 59.6304C22.8542 58.7122 19.5412 57.0939 16.6452 54.8712C13.7491 52.6486 11.329 49.8669 9.52826 46.6913C7.72754 43.5157 6.58294 40.0107 6.16236 36.3844C5.74178 32.7581 6.05378 29.0842 7.07986 25.5807C8.10594 22.0772 9.82519 18.8155 12.1356 15.989C14.4461 13.1625 17.3007 10.8288 20.5301 9.12636C23.7594 7.42391 27.2978 6.38738 30.9354 6.07825C33.6232 5.84984 36.3247 6.02201 38.9521 6.5846C40.493 6.91453 41.3094 8.54112 40.8203 10.0391C40.3312 11.5371 38.7212 12.3348 37.1717 12.0476C35.2795 11.697 33.3446 11.6005 31.4186 11.7642C28.5424 12.0086 25.7446 12.8282 23.1912 14.1743C20.6378 15.5204 18.3807 17.3656 16.5538 19.6005C14.727 21.8354 13.3676 24.4144 12.5563 27.1846C11.745 29.9548 11.4983 32.8597 11.8308 35.727C12.1634 38.5943 13.0684 41.3656 14.4922 43.8765C15.916 46.3875 17.8296 48.5869 20.1195 50.3443C22.4094 52.1017 25.0289 53.3814 27.8226 54.1073L26.3875 59.6304Z" fill="#1A3A96"/>
<path d="M34.6362 62.2856C38.611 62.7419 42.1301 63.198 46.11 63.6543L45.1137 60.2273C44.9619 59.6172 45.191 58.9328 45.6518 58.5536L57.2029 48.8028L54.8293 47.6622C53.7558 47.2803 54.0621 46.596 54.4457 45.1477L56.204 38.4475L49.4747 39.9701C48.7875 40.047 48.4011 39.5881 48.2493 39.2088L47.4075 36.0842L42.1301 42.254C41.3655 43.2433 39.8391 43.2433 40.2972 40.9595L42.5883 28.3918L39.5274 30.0681C38.6882 30.5244 37.3135 29.7631 37.3135 29.7631L33.1045 21.6118L28.898 29.7603C28.4372 30.5985 27.5953 30.5216 26.7535 30.0654L23.6926 28.389L25.9889 40.9567C26.447 43.2406 24.9152 43.2406 24.1534 42.2512L18.8733 36.0813L17.9542 39.206C17.8796 39.5853 17.4187 40.0442 16.806 39.9674L10.0796 38.4447L11.8406 45.1451C12.2242 46.5934 12.5278 47.2777 11.457 47.6596L9.08594 48.8028L20.6371 58.5536C21.0952 58.9328 21.3243 59.6172 21.1698 60.2273L20.1761 63.6543C24.1535 63.198 27.67 62.7419 31.6499 62.2856C32.0335 62.2856 32.6436 62.5907 32.6436 63.047L32.6197 63.9458L25.6492 68.1616C25.2569 68.3991 25.4259 68.9998 25.885 68.9998H40.5274C40.9866 68.9998 41.1554 68.3991 40.7631 68.1616L33.7904 63.9444L33.7171 63.047C33.7171 62.6649 34.2554 62.2856 34.6362 62.2856Z" fill="#E22526"/>
</svg>
