<svg width="76" height="76" viewBox="0 0 76 76" fill="none" xmlns="http://www.w3.org/2000/svg">
<path d="M45 55.9999C43.5164 55.9999 42.1652 55.3077 41.2732 54.1008C36.319 47.3477 28 35.0129 28 28.2332C28 18.7291 35.6301 10.9999 45 10.9999C54.3699 10.9999 62 18.7291 62 28.2332C62 35.0129 53.681 47.3566 48.7268 54.1008C47.8436 55.3077 46.4836 55.9999 45 55.9999Z" fill="url(#paint0_linear_11_182)"/>
<path d="M38.0016 58.8783C36.1776 58.8783 34.5164 58.0315 33.4198 56.5549C27.329 48.2926 17.1016 33.2012 17.1016 24.9063C17.1016 13.2783 26.4821 3.82178 38.0016 3.82178C49.521 3.82178 58.9016 13.2783 58.9016 24.9063C58.9016 33.2012 48.6741 48.3035 42.5833 56.5549C41.4976 58.0315 39.8256 58.8783 38.0016 58.8783ZM38.0016 6.29721C28.0456 6.29721 19.9461 14.4835 19.9461 24.5481C19.9461 30.1069 25.9393 41.4201 36.3947 55.5778C37.1656 56.6201 38.8376 56.6201 39.6084 55.5778C50.0638 41.4092 56.057 30.1069 56.057 24.5481C56.057 14.4835 47.9576 6.29721 38.0016 6.29721Z" fill="black"/>
<circle cx="38" cy="24" r="9.5" stroke="black" stroke-width="3"/>
<defs>
<linearGradient id="paint0_linear_11_182" x1="36.8648" y1="13.209" x2="53.6767" y2="52.7917" gradientUnits="userSpaceOnUse">
<stop offset="0.0672515" stop-color="#1BBD83"/>
<stop offset="0.934541" stop-color="#009FF7"/>
</linearGradient>
</defs>
</svg>
