<svg width="51" height="49" viewBox="0 0 51 49" fill="none" xmlns="http://www.w3.org/2000/svg">
<path d="M15.041 43.9491C14.4791 43.3892 13.8432 42.8768 13.3554 42.2696C12.6735 41.4231 12.2316 41.1499 11.6718 40.0302L10.5779 37.9485L10.5198 37.8421C8.87177 34.8212 8 31.4182 8 28C8.00104 16.4204 17.6455 7 29.5016 7C41.3566 7.00101 51.001 16.4214 51 28C51 39.5796 41.3555 49 29.5005 49C25.5693 49 21.2067 48.1854 17.8504 46.1884L17.2885 45.6286L16.1648 45.0687C15.041 43.9491 15.3368 43.9491 15.041 43.9491Z" fill="url(#paint0_linear_12_183)"/>
<path d="M29.8537 34.9985C24.2166 34.9985 18.6259 29.4924 18.1125 28.9731L18.108 28.9656L18.0616 28.9207C17.9942 28.8548 16.3776 27.2789 14.8344 24.9666C13.4767 22.9327 11.8826 19.8646 12.0068 16.8069C12.0068 16.762 12.0128 16.7261 12.0188 16.6902C12.0772 16.3385 12.6654 13.1267 14.8344 11.6765C15.508 11.2275 16.2639 11 17.0826 11C17.4344 11 17.7981 11.0434 18.1619 11.1287C18.3879 11.1811 18.587 11.3263 18.7067 11.5268L21.6525 16.4612L21.6615 16.4732C21.684 16.5061 22.1929 17.2859 21.3142 18.4772C21.2618 18.549 21.202 18.6089 21.1316 18.6598C21.1316 18.6598 20.7424 18.9441 20.4176 19.1806L20.1572 19.3707L20.2545 19.679C20.8517 21.5782 25.4635 26.2178 27.3046 26.7715L27.6085 26.8628L28.3404 25.8675C28.3928 25.7957 28.4527 25.7343 28.5216 25.685C28.9796 25.3467 29.4271 25.1761 29.8537 25.1761C30.2803 25.1761 30.5453 25.3467 30.5947 25.3811L30.6067 25.3901L35.4759 28.2936C35.675 28.4133 35.8202 28.6109 35.8726 28.8384C36.1555 30.0536 35.9654 31.2045 35.3217 32.1654C33.8698 34.3355 30.659 34.9237 30.2968 34.982C30.2609 34.988 30.2265 34.9925 30.189 34.994C30.0962 34.9985 30.0034 35 29.9091 35H29.8522L29.8537 34.9985ZM19.292 27.7234L19.3085 27.7398C19.3623 27.7952 24.7914 33.2789 29.9031 33.2789C29.9436 33.2789 30.0648 33.2774 30.0648 33.2774L30.1022 33.2699C30.2145 33.2489 32.8804 32.7266 33.8937 31.203C34.1736 30.784 34.2994 30.332 34.2784 29.8202L34.268 29.5777L29.7355 26.8718L29.4945 27.2025C29.1158 27.7219 28.9571 27.9329 28.8688 28.0422L28.8269 28.0945C28.6099 28.319 28.2446 28.56 27.6773 28.56C27.4947 28.56 27.2986 28.5345 27.0951 28.4852C24.5235 27.8641 19.1618 22.4612 18.5316 19.8586C18.3086 18.9366 18.6319 18.4113 18.9492 18.1315L20.1287 17.2634L17.4224 12.7346L17.1814 12.7241C17.144 12.7226 17.1081 12.7211 17.0707 12.7211C16.6126 12.7211 16.1845 12.8513 15.7983 13.1073C14.2731 14.122 13.7537 16.786 13.7327 16.8982L13.7267 16.9341V16.9701C13.5905 21.9613 18.9058 27.3357 19.2501 27.677L19.2875 27.7159L19.2935 27.7249L19.292 27.7234Z" fill="black" stroke="black" stroke-width="0.5"/>
<circle cx="23.5" cy="23.5" r="22.25" stroke="black" stroke-width="2.5"/>
<defs>
<linearGradient id="paint0_linear_12_183" x1="27.5125" y1="13.2048" x2="38.4379" y2="41.7105" gradientUnits="userSpaceOnUse">
<stop stop-color="#1BBD83"/>
<stop offset="1" stop-color="#019FF8"/>
</linearGradient>
</defs>
</svg>
