<svg width="13" height="11" viewBox="0 0 13 11" fill="none" xmlns="http://www.w3.org/2000/svg">
<path d="M5.24541 10.0208C5.02941 10.0208 4.81741 9.95394 4.64541 9.83137L0.393409 6.83765C0.181409 6.68908 0.0454093 6.46994 0.00940931 6.22851C-0.0265907 5.98708 0.0414094 5.73822 0.201409 5.54508C0.361409 5.34822 0.597409 5.22194 0.857409 5.18851C1.11741 5.15508 1.38541 5.21823 1.59341 5.3668L5.00141 7.76623L10.2774 0.415653C10.4214 0.211368 10.6494 0.0665107 10.9094 0.0182249C11.1694 -0.0300608 11.4374 0.0182248 11.6614 0.155653C11.8814 0.293082 12.0334 0.504797 12.0854 0.746225C12.1374 0.987654 12.0814 1.23651 11.9334 1.4408L6.07341 9.60851C5.88941 9.86851 5.57741 10.0208 5.24541 10.0208Z" fill="white"/>
</svg>
